<svg xmlns="http://www.w3.org/2000/svg" xmlns:xlink="http://www.w3.org/1999/xlink" width="920" height="518"
	 viewBox="0 0 920 518" >
	<image x="0" y="0" width="920px" height="518px" xlink:href="/location/map_background.jpg"></image>
	<g transform="translate(5 5) scale(0.0025)">
		<g transform="translate(-134000 22000)">
			
			<g>
				<path fill="#69B7CF" fill-opacity="0.3692" d="M 234648.7307 63892.6152 L 339156.73069999996 63892.6152 339156.73069999996 82384.6152 234648.7307 82384.6152 Z"></path>
				<path fill="#000" fill-opacity="0" stroke="#000" stroke-opacity="0" stroke-width="4243.1554524361945" stroke-linecap="round" stroke-linejoin="round" stroke-miterlimit="10" pointer-events="visiblePainted" d="M 234648.7307 63892.6152 L 339156.73069999996 63892.6152 339156.73069999996 82384.6152 234648.7307 82384.6152 Z"></path>
				<g direction="ltr" style="opacity: 1;">
					<g transform="matrix(381,0,0,380.99999999999994,238305.7307,65899.6152)">
						<g class="sketchy-text-content-text" transform="translate(0 30.72)">
							<text x="3.7074311023621505px" style="font-family:Abel;font-size:32px;fill:#FFFFFF;white-space:pre;" y="0px" text-rendering="geometricPrecision">\</text>
							<text x="23.28555610236215px" style="font-family:Abel;font-size:32px;fill:#FFFFFF;white-space:pre;" y="0px" text-rendering="geometricPrecision">cat</text>
							<text x="70.81680610236215px" style="font-family:Abel;font-size:32px;fill:#FFFFFF;white-space:pre;" y="0px" text-rendering="geometricPrecision">apple</text>
							<text x="143.34805610236214px" style="font-family:Abel;font-size:32px;fill:#FFFFFF;white-space:pre;" y="0px" text-rendering="geometricPrecision">tomato</text>
							<text x="239.17618110236214px" style="font-family:Abel;font-size:32px;fill:#FFFFFF;white-space:pre;" y="0px" text-rendering="geometricPrecision">/</text>
						</g>
					</g>
					<path d="M 239718.26194999996 65899.6152 L 334087.19944999996 65899.6152 334087.19944999996 80530.0152 239718.26194999996 80530.0152 Z" pointer-events="visiblePainted" fill="#000000" stroke="#000000" opacity="0"></path>
				</g>
			</g>
			
			<path stroke="#69B7CF" stroke-opacity="1" stroke-width="381" stroke-linecap="butt" stroke-linejoin="round" stroke-miterlimit="8" d="M 286902.7307 82384.6152 L 280470.7307 87208.6152"></path>
			<path stroke="#000" stroke-opacity="0" stroke-width="4243.1554524361945" stroke-linecap="round" stroke-linejoin="round" stroke-miterlimit="10" pointer-events="visiblePainted" d="M 286902.7307 82384.6152 L 280470.7307 87208.6152"></path>
			
			<path fill="#69B7CF" fill-opacity="1" d="M 278148.5291 87655.655 C 278148.5291 86694.67953529442 278989.33833981777 85915.655 280026.5291 85915.655 281063.7198601822 85915.655 281904.5291 86694.67953529442 281904.5291 87655.655 281904.5291 88616.63046470558 281063.7198601822 89395.655 280026.5291 89395.655 278989.33833981777 89395.655 278148.5291 88616.63046470558 278148.5291 87655.655 Z"></path>
		
		</g>
		<g>
			<g>
				<path fill="#DDD" fill-opacity="0.55" stroke="#000" stroke-opacity="0" stroke-width="4243.1554524361945" stroke-linecap="round" stroke-linejoin="round" stroke-miterlimit="10" pointer-events="visiblePainted" d="M 308920 191589 L 361480 191589 361480 199629 308920 199629 Z"></path>
			</g>
			<g direction="ltr" style="opacity: 1;">
				<g transform="matrix(381,0,0,380.99999999999994,312577,191418)">
					<g pointer-events="none">
						<g>
							<g>
								<g class="sketchy-text-content" visibility="visible">
									<g class="sketchy-text-content-text" transform="translate(0 17.919999999999998)">
										<text x="14.604942501999261px" style="font-family:Abel;font-size:18.666666666666664px;fill:#444;white-space:pre;" y="0px" text-rendering="geometricPrecision">Treviso,</text>
										<text x="73.57338732621801px" style="font-family:Abel;font-size:18.666666666666664px;fill:#444;white-space:pre;" y="0px" text-rendering="geometricPrecision">Italy</text>
									</g>
								</g>
							</g>
						</g>
					</g>
				</g>
				<g>
					<path d="M 318141.4830932617 191418 L 352258.5169067383 191418 352258.5169067383 199952.4 318141.4830932617 199952.4 Z" pointer-events="visiblePainted" fill="#000000" stroke="#000000" opacity="0"></path>
				</g>
			</g>
		</g>
	</g>
</svg>
