<svg version="1.1" viewBox="0.0 0.0 960.0 540.0" fill="none" stroke="none" stroke-linecap="square" stroke-miterlimit="10" xmlns:xlink="http://www.w3.org/1999/xlink" xmlns="http://www.w3.org/2000/svg"><clipPath id="gd251bb473_0_600.0"><path d="m0 0l960.0 0l0 540.0l-960.0 0l0 -540.0z" clip-rule="nonzero"/></clipPath><g clip-path="url(#gd251bb473_0_600.0)"><path fill="#d9d9d9" d="m0 0l960.0 0l0 540.0l-960.0 0z" fill-rule="evenodd"/><path fill="#000000" fill-opacity="0.0" d="m77.72212 74.76541l655.5591 0l0 402.67715l-655.5591 0z" fill-rule="evenodd"/><path fill="#ffffff" d="m123.00337 137.45541l0 7.75l-31.546875 0l0 -45.4375l30.984375 0l0 7.734375l-22.15625 0l0 10.953125l19.140625 0l0 7.171875l-19.140625 0l0 11.828125l22.71875 0zm13.12056 7.75l-12.34375 -33.53125l8.828125 0l8.515625 26.5625l8.578125 -26.5625l8.0625 0l-12.359375 33.53125l-9.28125 0zm40.515198 0.640625q-4.03125 0 -7.296875 -1.375q-3.265625 -1.375 -5.578125 -3.734375q-2.296875 -2.375 -3.546875 -5.515625q-1.234375 -3.140625 -1.234375 -6.59375q0 -3.578125 1.203125 -6.75q1.21875 -3.171875 3.515625 -5.5625q2.3125 -2.40625 5.609375 -3.8125q3.296875 -1.40625 7.390625 -1.40625q4.09375 0 7.328125 1.40625q3.234375 1.40625 5.5 3.78125q2.28125 2.359375 3.453125 5.5q1.1875 3.140625 1.1875 6.53125q0 0.828125 -0.03125 1.59375q-0.03125 0.765625 -0.15625 1.28125l-25.921875 0q0.203125 1.984375 0.96875 3.53125q0.765625 1.53125 1.984375 2.625q1.21875 1.078125 2.75 1.65625q1.53125 0.578125 3.203125 0.578125q2.5625 0 4.828125 -1.25q2.265625 -1.25 3.109375 -3.296875l7.359375 2.046875q-1.859375 3.84375 -5.921875 6.3125q-4.0625 2.453125 -9.703125 2.453125zm8.703125 -20.21875q-0.3125 -3.78125 -2.78125 -6.046875q-2.46875 -2.28125 -5.984375 -2.28125q-1.734375 0 -3.234375 0.609375q-1.5 0.609375 -2.65625 1.703125q-1.140625 1.078125 -1.890625 2.625q-0.734375 1.53125 -0.859375 3.390625l17.40625 0zm45.257812 19.578125l-8.578125 0l0 -18.8125q0 -4.03125 -1.40625 -5.890625q-1.40625 -1.859375 -3.90625 -1.859375q-1.28125 0 -2.625 0.515625q-1.34375 0.515625 -2.53125 1.4375q-1.1875 0.921875 -2.15625 2.203125q-0.953125 1.28125 -1.390625 2.828125l0 19.578125l-8.578125 0l0 -33.53125l7.734375 0l0 6.203125q1.859375 -3.203125 5.375 -4.984375q3.53125 -1.796875 7.9375 -1.796875q3.140625 0 5.125 1.15625q1.984375 1.140625 3.0625 3.0q1.09375 1.859375 1.515625 4.234375q0.421875 2.359375 0.421875 4.796875l0 20.921875zm22.844025 0l0 -33.53125l8.578125 0l0 33.53125l-8.578125 0zm0 -38.203125l0 -8.515625l8.578125 0l0 8.515625l-8.578125 0zm47.49185 38.203125l-8.578125 0l0 -18.8125q0 -4.03125 -1.40625 -5.890625q-1.40625 -1.859375 -3.90625 -1.859375q-1.28125 0 -2.625 0.515625q-1.34375 0.515625 -2.53125 1.4375q-1.1875 0.921875 -2.15625 2.203125q-0.953125 1.28125 -1.390625 2.828125l0 19.578125l-8.578125 0l0 -33.53125l7.734375 0l0 6.203125q1.859375 -3.203125 5.375 -4.984375q3.53125 -1.796875 7.9375 -1.796875q3.140625 0 5.125 1.15625q1.984375 1.140625 3.0625 3.0q1.09375 1.859375 1.515625 4.234375q0.421875 2.359375 0.421875 4.796875l0 20.921875zm42.937805 -1.734375q-1.734375 0.78125 -4.234375 1.546875q-2.484375 0.765625 -5.234375 0.765625q-1.7969055 0 -3.3750305 -0.453125q-1.5625 -0.4375 -2.75 -1.421875q-1.171875 -1.0 -1.875 -2.5625q-0.703125 -1.578125 -0.703125 -3.828125l0 -19.25l-4.421875 0l0 -6.59375l4.421875 0l0 -10.890625l8.5781555 0l0 10.890625l7.03125 0l0 6.59375l-7.03125 0l0 16.375q0 1.796875 0.921875 2.53125q0.921875 0.734375 2.265625 0.734375q1.34375 0 2.625 -0.4375q1.28125 -0.453125 2.046875 -0.78125l1.734375 6.78125zm35.654053 1.734375l-8.578125 0l0 -18.8125q0 -3.96875 -1.484375 -5.859375q-1.46875 -1.890625 -4.15625 -1.890625q-1.140625 0 -2.421875 0.515625q-1.28125 0.515625 -2.4375 1.4375q-1.15625 0.921875 -2.125 2.203125q-0.953125 1.28125 -1.390625 2.828125l0 19.578125l-8.578125 0l0 -46.71875l8.578125 0l0 19.390625q1.859375 -3.265625 5.015625 -5.015625q3.171875 -1.765625 7.015625 -1.765625q3.265625 0 5.3125 1.125q2.046875 1.109375 3.1875 2.96875q1.15625 1.859375 1.609375 4.234375q0.453125 2.359375 0.453125 4.859375l0 20.921875zm23.030945 0.640625q-4.03125 0 -7.296875 -1.375q-3.265625 -1.375 -5.578125 -3.734375q-2.296875 -2.375 -3.546875 -5.515625q-1.234375 -3.140625 -1.234375 -6.59375q0 -3.578125 1.203125 -6.75q1.21875 -3.171875 3.515625 -5.5625q2.3125 -2.40625 5.609375 -3.8125q3.296875 -1.40625 7.390625 -1.40625q4.09375 0 7.328125 1.40625q3.234375 1.40625 5.5 3.78125q2.28125 2.359375 3.453125 5.5q1.1875 3.140625 1.1875 6.53125q0 0.828125 -0.03125 1.59375q-0.03125 0.765625 -0.15625 1.28125l-25.921875 0q0.203125 1.984375 0.96875 3.53125q0.765625 1.53125 1.984375 2.625q1.21875 1.078125 2.75 1.65625q1.53125 0.578125 3.203125 0.578125q2.5625 0 4.828125 -1.25q2.265625 -1.25 3.109375 -3.296875l7.359375 2.046875q-1.859375 3.84375 -5.921875 6.3125q-4.0625 2.453125 -9.703125 2.453125zm8.703125 -20.21875q-0.3125 -3.78125 -2.78125 -6.046875q-2.46875 -2.28125 -5.984375 -2.28125q-1.734375 0 -3.234375 0.609375q-1.5 0.609375 -2.65625 1.703125q-1.140625 1.078125 -1.890625 2.625q-0.734375 1.53125 -0.859375 3.390625l17.40625 0zm61.820923 14.453125q-5.4375 5.4375 -12.671875 5.4375q-4.46875 0 -8.40625 -1.78125q-3.9375 -1.796875 -6.859375 -4.921875q-2.90625 -3.140625 -4.609375 -7.390625q-1.6875 -4.265625 -1.6875 -9.1875q0 -4.671875 1.6875 -8.796875q1.703125 -4.140625 4.671875 -7.234375q2.984375 -3.109375 7.015625 -4.9375q4.03125 -1.828125 8.765625 -1.828125q6.40625 0 10.984375 2.6875q4.578125 2.6875 6.875 7.234375l-6.59375 4.875q-1.71875 -3.40625 -4.828125 -5.1875q-3.109375 -1.796875 -6.75 -1.796875q-2.890625 0 -5.296875 1.21875q-2.390625 1.21875 -4.09375 3.328125q-1.6875 2.109375 -2.625 4.859375q-0.921875 2.75 -0.921875 5.828125q0 3.203125 1.015625 5.984375q1.03125 2.78125 2.828125 4.828125q1.796875 2.046875 4.25 3.234375q2.46875 1.1875 5.359375 1.1875q6.578125 0 11.890625 -6.21875l0 -3.1875l-9.140625 0l0 -6.46875l16.4375 0l0 23.359375l-7.296875 0l0 -5.125zm14.853027 5.125l0 -45.4375l19.265625 0q3.140625 0 5.7968445 1.3125q2.65625 1.3125 4.5625 3.453125q1.921875 2.140625 3.015625 4.859375q1.09375 2.71875 1.09375 5.46875q0 2.890625 -1.03125 5.609375q-1.015625 2.71875 -2.875 4.828125q-1.859375 2.109375 -4.484375 3.390625q-2.6249695 1.28125 -5.7655945 1.28125l-10.75 0l0 15.234375l-8.828125 0zm8.828125 -22.96875l10.25 0q2.421875 0 4.046875 -1.984375q1.6405945 -1.984375 1.6405945 -5.390625q0 -1.71875 -0.515625 -3.09375q-0.49996948 -1.375 -1.3437195 -2.328125q-0.828125 -0.96875 -1.953125 -1.453125q-1.109375 -0.484375 -2.265625 -0.484375l-9.859375 0l0 14.734375zm58.121918 -10.5625q-0.453125 -0.453125 -1.640625 -1.21875q-1.1875 -0.765625 -2.890625 -1.5q-1.6875 -0.734375 -3.671875 -1.25q-1.984375 -0.515625 -4.03125 -0.515625q-3.640625 0 -5.4375 1.34375q-1.78125 1.34375 -1.78125 3.78125q0 1.40625 0.671875 2.34375q0.671875 0.921875 1.9375 1.625q1.28125 0.703125 3.234375 1.28125q1.953125 0.5625 4.515625 1.203125q3.328125 0.90625 6.046875 1.9375q2.71875 1.015625 4.609375 2.546875q1.890625 1.53125 2.90625 3.6875q1.03125 2.140625 1.03125 5.28125q0 3.640625 -1.375 6.234375q-1.375 2.59375 -3.71875 4.203125q-2.328125 1.59375 -5.375 2.328125q-3.03125 0.734375 -6.359375 0.734375q-5.125 0 -10.125 -1.53125q-4.984375 -1.546875 -8.953125 -4.359375l3.90625 -7.609375q0.578125 0.5625 2.078125 1.5q1.5 0.921875 3.546875 1.859375q2.046875 0.921875 4.546875 1.5625q2.5 0.640625 5.125 0.640625q7.296875 0 7.296875 -4.671875q0 -1.46875 -0.84375 -2.484375q-0.828125 -1.03125 -2.359375 -1.796875q-1.53125 -0.78125 -3.71875 -1.421875q-2.171875 -0.640625 -4.859375 -1.40625q-3.265625 -0.890625 -5.671875 -1.9375q-2.390625 -1.0625 -4.0 -2.5q-1.59375 -1.453125 -2.390625 -3.328125q-0.796875 -1.890625 -0.796875 -4.515625q0 -3.453125 1.28125 -6.140625q1.28125 -2.6875 3.546875 -4.484375q2.28125 -1.796875 5.28125 -2.71875q3.015625 -0.9375 6.46875 -0.9375q4.796875 0 8.828125 1.515625q4.03125 1.5 7.046875 3.546875l-3.90625 7.171875zm35.84192 34.171875q-2.4375 0 -4.546875 -0.796875q-2.109375 -0.796875 -3.65625 -2.234375q-1.53125 -1.453125 -2.40625 -3.375q-0.859375 -1.921875 -0.859375 -4.21875q0 -2.375 1.0625 -4.390625q1.0625 -2.015625 2.9375 -3.421875q1.890625 -1.40625 4.515625 -2.203125q2.625 -0.796875 5.765625 -0.796875q2.234375 0 4.375 0.390625q2.15625 0.375 3.8125 1.078125l0 -1.921875q0 -3.328125 -1.890625 -5.109375q-1.890625 -1.796875 -5.59375 -1.796875q-2.6875 0 -5.25 0.96875q-2.5625 0.953125 -5.25 2.796875l-2.625 -5.4375q6.46875 -4.28125 13.953125 -4.28125q7.234375 0 11.234375 3.546875q4.0 3.546875 4.0 10.28125l0 10.421875q0 1.34375 0.46875 1.921875q0.484375 0.578125 1.578125 0.640625l0 7.296875q-2.171875 0.453125 -3.78125 0.453125q-2.421875 0 -3.734375 -1.09375q-1.3125 -1.09375 -1.640625 -2.875l-0.1875 -1.859375q-2.234375 2.9375 -5.4375 4.484375q-3.203125 1.53125 -6.84375 1.53125zm2.421875 -6.265625q2.171875 0 4.125 -0.765625q1.953125 -0.78125 3.046875 -2.0625q1.40625 -1.078125 1.40625 -2.421875l0 -3.84375q-1.53125 -0.578125 -3.328125 -0.921875q-1.796875 -0.359375 -3.453125 -0.359375q-3.328125 0 -5.4375 1.515625q-2.109375 1.5 -2.109375 3.796875q0 2.171875 1.65625 3.625q1.671875 1.4375 4.09375 1.4375zm38.282776 5.8125q-3.40625 0 -6.15625 -1.34375q-2.75 -1.34375 -4.765625 -3.671875q-2.015625 -2.34375 -3.109375 -5.40625q-1.078125 -3.078125 -1.078125 -6.53125q0 -3.65625 1.140625 -6.78125q1.15625 -3.140625 3.203125 -5.5q2.046875 -2.375 4.921875 -3.71875q2.890625 -1.34375 6.34375 -1.34375q3.90625 0 6.84375 1.765625q2.953125 1.75 4.875 4.703125l0 -5.890625l7.484375 0l0 31.9375q0 3.703125 -1.40625 6.640625q-1.40625 2.953125 -3.875 5.0q-2.46875 2.046875 -5.890625 3.125q-3.421875 1.09375 -7.453125 1.09375q-5.5 0 -9.25 -1.828125q-3.734375 -1.8125 -6.421875 -5.140625l4.671875 -4.546875q1.921875 2.375 4.828125 3.71875q2.90625 1.34375 6.171875 1.34375q1.984375 0 3.8125 -0.546875q1.828125 -0.546875 3.234375 -1.703125q1.40625 -1.140625 2.203125 -2.9375q0.796875 -1.796875 0.796875 -4.21875l0 -4.234375q-1.65625 2.890625 -4.671875 4.453125q-3.0 1.5625 -6.453125 1.5625zm2.875 -6.84375q1.40625 0 2.6875 -0.4375q1.28125 -0.453125 2.359375 -1.21875q1.09375 -0.78125 1.921875 -1.796875q0.84375 -1.03125 1.28125 -2.171875l0 -8.0q-1.140625 -2.953125 -3.609375 -4.734375q-2.46875 -1.796875 -5.15625 -1.796875q-1.984375 0 -3.59375 0.859375q-1.59375 0.859375 -2.75 2.3125q-1.140625 1.4375 -1.75 3.296875q-0.609375 1.84375 -0.609375 3.828125q0 2.046875 0.703125 3.84375q0.703125 1.796875 1.953125 3.140625q1.25 1.34375 2.90625 2.109375q1.671875 0.765625 3.65625 0.765625zm40.122803 7.296875q-4.03125 0 -7.296875 -1.375q-3.265625 -1.375 -5.578125 -3.734375q-2.296875 -2.375 -3.546875 -5.515625q-1.234375 -3.140625 -1.234375 -6.59375q0 -3.578125 1.203125 -6.75q1.21875 -3.171875 3.515625 -5.5625q2.3125 -2.40625 5.609375 -3.8125q3.296875 -1.40625 7.390625 -1.40625q4.09375 0 7.328125 1.40625q3.234375 1.40625 5.5 3.78125q2.28125 2.359375 3.453125 5.5q1.1875 3.140625 1.1875 6.53125q0 0.828125 -0.03125 1.59375q-0.03125 0.765625 -0.15625 1.28125l-25.921875 0q0.203125 1.984375 0.96875 3.53125q0.765625 1.53125 1.984375 2.625q1.21875 1.078125 2.75 1.65625q1.53125 0.578125 3.203125 0.578125q2.5625 0 4.828125 -1.25q2.265625 -1.25 3.109375 -3.296875l7.359375 2.046875q-1.859375 3.84375 -5.921875 6.3125q-4.0625 2.453125 -9.703125 2.453125zm8.703125 -20.21875q-0.3125 -3.78125 -2.78125 -6.046875q-2.46875 -2.28125 -5.984375 -2.28125q-1.734375 0 -3.234375 0.609375q-1.5 0.609375 -2.65625 1.703125q-1.140625 1.078125 -1.890625 2.625q-0.734375 1.53125 -0.859375 3.390625l17.40625 0zm14.8515625 26.9375l1.734375 -7.609375l-2.6875 0l0 -8.96875l7.421875 0l0 8.96875l-2.625 7.609375l-3.84375 0z" fill-rule="nonzero"/><path fill="#ffffff" d="m132.22212 188.67416l8.125 0l-14.015625 33.53125l-7.03125 0l-5.765625 -14.71875l-5.6875 14.71875l-7.046875 0l-13.953125 -33.53125l8.0625 0l9.984375 25.46875l4.09375 -10.875l-5.875 -14.53125l6.90625 0l3.515625 10.296875l3.59375 -10.296875l6.90625 0l-5.828125 14.53125l4.03125 10.875l9.984375 -25.46875zm43.274033 33.53125l-8.578125 0l0 -18.8125q0 -3.96875 -1.484375 -5.859375q-1.46875 -1.890625 -4.15625 -1.890625q-1.140625 0 -2.421875 0.515625q-1.28125 0.515625 -2.4375 1.4375q-1.15625 0.921875 -2.125 2.203125q-0.953125 1.28125 -1.390625 2.828125l0 19.578125l-8.578125 0l0 -46.71875l8.578125 0l0 19.390625q1.859375 -3.265625 5.015625 -5.015625q3.171875 -1.765625 7.015625 -1.765625q3.265625 0 5.3125 1.125q2.046875 1.109375 3.1875 2.96875q1.15625 1.859375 1.609375 4.234375q0.453125 2.359375 0.453125 4.859375l0 20.921875zm7.2911835 6.53125q1.09375 0.3125 2.109375 0.46875q1.03125 0.171875 1.734375 0.171875q0.828125 0 1.53125 -0.328125q0.703125 -0.3125 1.28125 -1.125q0.578125 -0.796875 1.140625 -2.203125q0.578125 -1.40625 1.21875 -3.515625l-13.234375 -33.53125l8.828125 0l9.078125 26.109375l8.078125 -26.109375l8.0625 0l-14.078125 40.1875q-1.21875 3.515625 -4.171875 5.75q-2.9375 2.25 -7.296875 2.25q-1.015625 0 -2.078125 -0.15625q-1.046875 -0.15625 -2.203125 -0.546875l0 -7.421875zm62.01941 -5.890625q-3.453125 0 -6.40625 -1.34375q-2.9375 -1.34375 -5.0625 -3.703125q-2.109375 -2.375 -3.296875 -5.546875q-1.171875 -3.171875 -1.171875 -6.8125q0 -3.65625 1.109375 -6.78125q1.125 -3.140625 3.109375 -5.5q1.984375 -2.375 4.734375 -3.71875q2.75 -1.34375 6.015625 -1.34375q3.71875 0 6.6875 1.796875q2.984375 1.78125 4.640625 4.671875l0 -19.078125l8.57814 0l0 36.859375q0 1.34375 0.4375 1.921875q0.453125 0.578125 1.546875 0.640625l0 7.296875q-2.234375 0.453125 -3.640625 0.453125q-2.3125 0 -3.78125 -1.15625q-1.46875 -1.15625 -1.671875 -3.015625l-0.1875 -2.109375q-1.8593903 3.203125 -5.0312653 4.84375q-3.15625 1.625 -6.609375 1.625zm2.234375 -7.296875q1.21875 0 2.5 -0.40625q1.28125 -0.421875 2.359375 -1.1875q1.09375 -0.78125 1.953125 -1.796875q0.875 -1.03125 1.3125 -2.234375l0 -8.0q-0.515625 -1.421875 -1.4375 -2.59375q-0.921875 -1.1875 -2.109375 -2.046875q-1.1875 -0.875 -2.5 -1.375q-1.3125 -0.515625 -2.59375 -0.515625q-1.921875 0 -3.546875 0.828125q-1.625 0.828125 -2.78125 2.28125q-1.15625 1.4375 -1.796875 3.296875q-0.640625 1.84375 -0.640625 3.828125q0 2.109375 0.703125 3.90625q0.703125 1.796875 1.921875 3.140625q1.21875 1.34375 2.90625 2.109375q1.703125 0.765625 3.75 0.765625zm40.639297 7.296875q-4.09375 0 -7.359375 -1.40625q-3.265625 -1.40625 -5.546875 -3.796875q-2.265625 -2.40625 -3.484375 -5.546875q-1.203125 -3.140625 -1.203125 -6.59375q0 -3.515625 1.203125 -6.65625q1.21875 -3.140625 3.484375 -5.53125q2.28125 -2.40625 5.546875 -3.8125q3.265625 -1.40625 7.359375 -1.40625q4.09375 0 7.328125 1.40625q3.234375 1.40625 5.5 3.8125q2.28125 2.390625 3.484375 5.53125q1.21875 3.140625 1.21875 6.65625q0 3.453125 -1.21875 6.59375q-1.203125 3.140625 -3.453125 5.546875q-2.234375 2.390625 -5.5 3.796875q-3.265625 1.40625 -7.359375 1.40625zm-8.765625 -17.34375q0 2.234375 0.671875 4.0625q0.671875 1.828125 1.859375 3.171875q1.1875 1.34375 2.78125 2.078125q1.59375 0.734375 3.453125 0.734375q1.859375 0 3.453125 -0.734375q1.609375 -0.734375 2.78125 -2.078125q1.1875 -1.34375 1.859375 -3.203125q0.671875 -1.859375 0.671875 -4.09375q0 -2.171875 -0.671875 -4.03125q-0.671875 -1.859375 -1.859375 -3.203125q-1.171875 -1.34375 -2.78125 -2.078125q-1.59375 -0.734375 -3.453125 -0.734375q-1.859375 0 -3.453125 0.765625q-1.59375 0.765625 -2.78125 2.109375q-1.1875 1.34375 -1.859375 3.203125q-0.671875 1.859375 -0.671875 4.03125zm56.58142 17.34375q-2.4375 0 -4.546875 -0.796875q-2.109375 -0.796875 -3.65625 -2.234375q-1.53125 -1.453125 -2.40625 -3.375q-0.859375 -1.921875 -0.859375 -4.21875q0 -2.375 1.0625 -4.390625q1.0625 -2.015625 2.9375 -3.421875q1.890625 -1.40625 4.515625 -2.203125q2.625 -0.796875 5.765625 -0.796875q2.234375 0 4.375 0.390625q2.15625 0.375 3.8125 1.078125l0 -1.921875q0 -3.328125 -1.890625 -5.109375q-1.890625 -1.796875 -5.59375 -1.796875q-2.6875 0 -5.25 0.96875q-2.5625 0.953125 -5.25 2.796875l-2.625 -5.4375q6.46875 -4.28125 13.953125 -4.28125q7.234375 0 11.234375 3.546875q4.0 3.546875 4.0 10.28125l0 10.421875q0 1.34375 0.46875 1.921875q0.484375 0.578125 1.578125 0.640625l0 7.296875q-2.171875 0.453125 -3.78125 0.453125q-2.421875 0 -3.734375 -1.09375q-1.3125 -1.09375 -1.640625 -2.875l-0.1875 -1.859375q-2.234375 2.9375 -5.4375 4.484375q-3.203125 1.53125 -6.84375 1.53125zm2.421875 -6.265625q2.171875 0 4.125 -0.765625q1.953125 -0.78125 3.046875 -2.0625q1.40625 -1.078125 1.40625 -2.421875l0 -3.84375q-1.53125 -0.578125 -3.328125 -0.921875q-1.796875 -0.359375 -3.453125 -0.359375q-3.328125 0 -5.4375 1.515625q-2.109375 1.5 -2.109375 3.796875q0 2.171875 1.65625 3.625q1.671875 1.4375 4.09375 1.4375zm39.04843 6.265625q-3.453125 0 -6.40625 -1.34375q-2.9375 -1.34375 -5.0625 -3.703125q-2.109375 -2.375 -3.296875 -5.546875q-1.171875 -3.171875 -1.171875 -6.8125q0 -3.65625 1.109375 -6.78125q1.125 -3.140625 3.109375 -5.5q1.984375 -2.375 4.734375 -3.71875q2.75 -1.34375 6.015625 -1.34375q3.71875 0 6.6875 1.796875q2.984375 1.78125 4.640625 4.671875l0 -19.078125l8.578125 0l0 36.859375q0 1.34375 0.4375 1.921875q0.453125 0.578125 1.546875 0.640625l0 7.296875q-2.234375 0.453125 -3.640625 0.453125q-2.3125 0 -3.78125 -1.15625q-1.46875 -1.15625 -1.671875 -3.015625l-0.1875 -2.109375q-1.859375 3.203125 -5.03125 4.84375q-3.15625 1.625 -6.609375 1.625zm2.234375 -7.296875q1.21875 0 2.5 -0.40625q1.28125 -0.421875 2.359375 -1.1875q1.09375 -0.78125 1.953125 -1.796875q0.875 -1.03125 1.3125 -2.234375l0 -8.0q-0.515625 -1.421875 -1.4375 -2.59375q-0.921875 -1.1875 -2.109375 -2.046875q-1.1875 -0.875 -2.5 -1.375q-1.3125 -0.515625 -2.59375 -0.515625q-1.921875 0 -3.546875 0.828125q-1.625 0.828125 -2.78125 2.28125q-1.15625 1.4375 -1.796875 3.296875q-0.640625 1.84375 -0.640625 3.828125q0 2.109375 0.703125 3.90625q0.703125 1.796875 1.921875 3.140625q1.21875 1.34375 2.90625 2.109375q1.703125 0.765625 3.75 0.765625zm39.045532 7.296875q-3.453125 0 -6.40625 -1.34375q-2.9375 -1.34375 -5.0625 -3.703125q-2.109375 -2.375 -3.296875 -5.546875q-1.171875 -3.171875 -1.171875 -6.8125q0 -3.65625 1.109375 -6.78125q1.125 -3.140625 3.109375 -5.5q1.984375 -2.375 4.734375 -3.71875q2.75 -1.34375 6.015625 -1.34375q3.71875 0 6.6875 1.796875q2.984375 1.78125 4.640625 4.671875l0 -19.078125l8.578125 0l0 36.859375q0 1.34375 0.4375 1.921875q0.453125 0.578125 1.546875 0.640625l0 7.296875q-2.234375 0.453125 -3.640625 0.453125q-2.3125 0 -3.78125 -1.15625q-1.46875 -1.15625 -1.671875 -3.015625l-0.1875 -2.109375q-1.859375 3.203125 -5.03125 4.84375q-3.15625 1.625 -6.609375 1.625zm2.234375 -7.296875q1.21875 0 2.5 -0.40625q1.28125 -0.421875 2.359375 -1.1875q1.09375 -0.78125 1.953125 -1.796875q0.875 -1.03125 1.3125 -2.234375l0 -8.0q-0.515625 -1.421875 -1.4375 -2.59375q-0.921875 -1.1875 -2.109375 -2.046875q-1.1875 -0.875 -2.5 -1.375q-1.3125 -0.515625 -2.59375 -0.515625q-1.921875 0 -3.546875 0.828125q-1.625 0.828125 -2.78125 2.28125q-1.15625 1.4375 -1.796875 3.296875q-0.640625 1.84375 -0.640625 3.828125q0 2.109375 0.703125 3.90625q0.703125 1.796875 1.921875 3.140625q1.21875 1.34375 2.90625 2.109375q1.703125 0.765625 3.75 0.765625zm45.123657 -19.453125q-3.90625 0.0625 -6.984375 1.5q-3.0625 1.4375 -4.40625 4.328125l0 20.28125l-8.578125 0l0 -33.53125l7.875 0l0 7.15625q0.890625 -1.71875 2.109375 -3.09375q1.21875 -1.375 2.625 -2.390625q1.40625 -1.03125 2.84375 -1.578125q1.4375 -0.546875 2.78125 -0.546875q0.703125 0 1.046875 0q0.359375 0 0.6875 0.0625l0 7.8125zm18.682068 26.75q-4.03125 0 -7.296875 -1.375q-3.265625 -1.375 -5.578125 -3.734375q-2.296875 -2.375 -3.546875 -5.515625q-1.234375 -3.140625 -1.234375 -6.59375q0 -3.578125 1.203125 -6.75q1.21875 -3.171875 3.515625 -5.5625q2.3125 -2.40625 5.609375 -3.8125q3.296875 -1.40625 7.390625 -1.40625q4.09375 0 7.328125 1.40625q3.234375 1.40625 5.5 3.78125q2.28125 2.359375 3.453125 5.5q1.1875 3.140625 1.1875 6.53125q0 0.828125 -0.03125 1.59375q-0.03125 0.765625 -0.15625 1.28125l-25.921875 0q0.203125 1.984375 0.96875 3.53125q0.765625 1.53125 1.984375 2.625q1.21875 1.078125 2.75 1.65625q1.53125 0.578125 3.203125 0.578125q2.5625 0 4.828125 -1.25q2.265625 -1.25 3.109375 -3.296875l7.359375 2.046875q-1.859375 3.84375 -5.921875 6.3125q-4.0625 2.453125 -9.703125 2.453125zm8.703125 -20.21875q-0.3125 -3.78125 -2.78125 -6.046875q-2.46875 -2.28125 -5.984375 -2.28125q-1.734375 0 -3.234375 0.609375q-1.5 0.609375 -2.65625 1.703125q-1.140625 1.078125 -1.890625 2.625q-0.734375 1.53125 -0.859375 3.390625l17.40625 0zm26.757782 20.21875q-4.21875 0 -8.2655945 -1.34375q-4.03125 -1.34375 -6.90625 -3.84375l3.203125 -5.375q3.078125 2.171875 5.9843445 3.296875q2.90625 1.125 5.796875 1.125q2.546875 0 4.015625 -0.953125q1.484375 -0.96875 1.484375 -2.765625q0 -1.796875 -1.734375 -2.625q-1.71875 -0.828125 -5.625 -1.921875q-3.265625 -0.890625 -5.578125 -1.71875q-2.2968445 -0.828125 -3.7030945 -1.890625q-1.40625 -1.0625 -2.046875 -2.4375q-0.640625 -1.375 -0.640625 -3.296875q0 -2.546875 0.984375 -4.59375q1.0 -2.0625 2.78125 -3.5q1.796875 -1.4375 4.1874695 -2.203125q2.40625 -0.765625 5.234375 -0.765625q3.765625 0 7.0625 1.09375q3.296875 1.078125 6.046875 3.515625l-3.453125 5.171875q-2.5625 -1.90625 -4.96875 -2.796875q-2.390625 -0.90625 -4.75 -0.90625q-2.1875 0 -3.65625 0.90625q-1.46875 0.890625 -1.46875 2.875q0 0.890625 0.34375 1.46875q0.359375 0.578125 1.125 1.03125q0.765625 0.4375 2.015625 0.859375q1.25 0.40625 3.109375 0.859375q3.453125 0.890625 5.90625 1.796875q2.46875 0.890625 4.03125 2.046875q1.578125 1.140625 2.3125 2.65625q0.734375 1.5 0.734375 3.609375q0 4.921875 -3.65625 7.78125q-3.640625 2.84375 -9.90625 2.84375zm31.807983 0q-4.21875 0 -8.265625 -1.34375q-4.03125 -1.34375 -6.90625 -3.84375l3.203125 -5.375q3.078125 2.171875 5.984375 3.296875q2.90625 1.125 5.796875 1.125q2.546875 0 4.015625 -0.953125q1.484375 -0.96875 1.484375 -2.765625q0 -1.796875 -1.734375 -2.625q-1.71875 -0.828125 -5.625 -1.921875q-3.265625 -0.890625 -5.578125 -1.71875q-2.296875 -0.828125 -3.703125 -1.890625q-1.40625 -1.0625 -2.046875 -2.4375q-0.640625 -1.375 -0.640625 -3.296875q0 -2.546875 0.984375 -4.59375q1.0 -2.0625 2.78125 -3.5q1.796875 -1.4375 4.1875 -2.203125q2.40625 -0.765625 5.234375 -0.765625q3.765625 0 7.0625 1.09375q3.296875 1.078125 6.046875 3.515625l-3.453125 5.171875q-2.5625 -1.90625 -4.96875 -2.796875q-2.390625 -0.90625 -4.75 -0.90625q-2.1875 0 -3.65625 0.90625q-1.46875 0.890625 -1.46875 2.875q0 0.890625 0.34375 1.46875q0.359375 0.578125 1.125 1.03125q0.765625 0.4375 2.015625 0.859375q1.25 0.40625 3.109375 0.859375q3.453125 0.890625 5.90625 1.796875q2.46875 0.890625 4.03125 2.046875q1.578125 1.140625 2.3125 2.65625q0.734375 1.5 0.734375 3.609375q0 4.921875 -3.65625 7.78125q-3.640625 2.84375 -9.90625 2.84375zm34.682922 0q-4.03125 0 -7.296875 -1.375q-3.265625 -1.375 -5.578125 -3.734375q-2.296875 -2.375 -3.546875 -5.515625q-1.234375 -3.140625 -1.234375 -6.59375q0 -3.578125 1.203125 -6.75q1.21875 -3.171875 3.515625 -5.5625q2.3125 -2.40625 5.609375 -3.8125q3.296875 -1.40625 7.390625 -1.40625q4.09375 0 7.328125 1.40625q3.234375 1.40625 5.5 3.78125q2.28125 2.359375 3.453125 5.5q1.1875 3.140625 1.1875 6.53125q0 0.828125 -0.03125 1.59375q-0.03125 0.765625 -0.15625 1.28125l-25.921875 0q0.203125 1.984375 0.96875 3.53125q0.765625 1.53125 1.984375 2.625q1.21875 1.078125 2.75 1.65625q1.53125 0.578125 3.203125 0.578125q2.5625 0 4.828125 -1.25q2.265625 -1.25 3.109375 -3.296875l7.359375 2.046875q-1.859375 3.84375 -5.921875 6.3125q-4.0625 2.453125 -9.703125 2.453125zm8.703125 -20.21875q-0.3125 -3.78125 -2.78125 -6.046875q-2.46875 -2.28125 -5.984375 -2.28125q-1.734375 0 -3.234375 0.609375q-1.5 0.609375 -2.65625 1.703125q-1.140625 1.078125 -1.890625 2.625q-0.734375 1.53125 -0.859375 3.390625l17.40625 0zm26.757812 20.21875q-4.21875 0 -8.265625 -1.34375q-4.03125 -1.34375 -6.90625 -3.84375l3.203125 -5.375q3.078125 2.171875 5.984375 3.296875q2.90625 1.125 5.796875 1.125q2.546875 0 4.015625 -0.953125q1.484375 -0.96875 1.484375 -2.765625q0 -1.796875 -1.734375 -2.625q-1.71875 -0.828125 -5.625 -1.921875q-3.265625 -0.890625 -5.578125 -1.71875q-2.296875 -0.828125 -3.703125 -1.890625q-1.40625 -1.0625 -2.046875 -2.4375q-0.640625 -1.375 -0.640625 -3.296875q0 -2.546875 0.984375 -4.59375q1.0 -2.0625 2.78125 -3.5q1.796875 -1.4375 4.1875 -2.203125q2.40625 -0.765625 5.234375 -0.765625q3.765625 0 7.0625 1.09375q3.296875 1.078125 6.046875 3.515625l-3.453125 5.171875q-2.5625 -1.90625 -4.96875 -2.796875q-2.390625 -0.90625 -4.75 -0.90625q-2.1875 0 -3.65625 0.90625q-1.46875 0.890625 -1.46875 2.875q0 0.890625 0.34375 1.46875q0.359375 0.578125 1.125 1.03125q0.765625 0.4375 2.015625 0.859375q1.25 0.40625 3.109375 0.859375q3.453125 0.890625 5.90625 1.796875q2.46875 0.890625 4.03125 2.046875q1.578125 1.140625 2.3125 2.65625q0.734375 1.5 0.734375 3.609375q0 4.921875 -3.65625 7.78125q-3.640625 2.84375 -9.90625 2.84375z" fill-rule="nonzero"/><path fill="#ffffff" d="m121.80025 299.2054l-8.578125 0l0 -18.8125q0 -3.96875 -1.484375 -5.859375q-1.46875 -1.890625 -4.15625 -1.890625q-1.140625 0 -2.421875 0.515625q-1.28125 0.515625 -2.4375 1.4375q-1.15625 0.921875 -2.125 2.203125q-0.953125 1.28125 -1.390625 2.828125l0 19.578125l-8.578125 0l0 -46.71875l8.578125 0l0 19.390625q1.859375 -3.265625 5.015625 -5.015625q3.171875 -1.765625 7.015625 -1.765625q3.265625 0 5.3125 1.125q2.046875 1.109375 3.1875 2.96875q1.15625 1.859375 1.609375 4.234375q0.453125 2.359375 0.453125 4.859375l0 20.921875zm16.640305 0.640625q-2.4375 0 -4.546875 -0.796875q-2.109375 -0.796875 -3.65625 -2.234375q-1.53125 -1.453125 -2.40625 -3.375q-0.859375 -1.921875 -0.859375 -4.21875q0 -2.375 1.0625 -4.390625q1.0625 -2.015625 2.9375 -3.421875q1.890625 -1.40625 4.515625 -2.203125q2.625 -0.796875 5.765625 -0.796875q2.234375 0 4.375 0.390625q2.15625 0.375 3.8125 1.078125l0 -1.921875q0 -3.328125 -1.890625 -5.109375q-1.890625 -1.796875 -5.59375 -1.796875q-2.6875 0 -5.25 0.96875q-2.5625 0.953125 -5.25 2.796875l-2.625 -5.4375q6.46875 -4.28125 13.953125 -4.28125q7.234375 0 11.234375 3.546875q4.0 3.546875 4.0 10.28125l0 10.421875q0 1.34375 0.46875 1.921875q0.484375 0.578125 1.578125 0.640625l0 7.296875q-2.171875 0.453125 -3.78125 0.453125q-2.421875 0 -3.734375 -1.09375q-1.3125 -1.09375 -1.640625 -2.875l-0.1875 -1.859375q-2.234375 2.9375 -5.4375 4.484375q-3.203125 1.53125 -6.84375 1.53125zm2.421875 -6.265625q2.171875 0 4.125 -0.765625q1.953125 -0.78125 3.046875 -2.0625q1.40625 -1.078125 1.40625 -2.421875l0 -3.84375q-1.53125 -0.578125 -3.328125 -0.921875q-1.796875 -0.359375 -3.453125 -0.359375q-3.328125 0 -5.4375 1.515625q-2.109375 1.5 -2.109375 3.796875q0 2.171875 1.65625 3.625q1.671875 1.4375 4.09375 1.4375zm33.277435 5.625l-12.34375 -33.53125l8.828125 0l8.515625 26.5625l8.578125 -26.5625l8.0625 0l-12.359375 33.53125l-9.28125 0zm40.515198 0.640625q-4.03125 0 -7.296875 -1.375q-3.265625 -1.375 -5.578125 -3.734375q-2.296875 -2.375 -3.546875 -5.515625q-1.234375 -3.140625 -1.234375 -6.59375q0 -3.578125 1.203125 -6.75q1.21875 -3.171875 3.515625 -5.5625q2.3125 -2.40625 5.609375 -3.8125q3.296875 -1.40625 7.390625 -1.40625q4.09375 0 7.328125 1.40625q3.234375 1.40625 5.5 3.78125q2.28125 2.359375 3.453125 5.5q1.1875 3.140625 1.1875 6.53125q0 0.828125 -0.03125 1.59375q-0.03125 0.765625 -0.15625 1.28125l-25.921875 0q0.203125 1.984375 0.96875 3.53125q0.765625 1.53125 1.984375 2.625q1.21875 1.078125 2.75 1.65625q1.53125 0.578125 3.203125 0.578125q2.5625 0 4.828125 -1.25q2.265625 -1.25 3.109375 -3.296875l7.359375 2.046875q-1.859375 3.84375 -5.921875 6.3125q-4.0625 2.453125 -9.703125 2.453125zm8.703125 -20.21875q-0.3125 -3.78125 -2.78125 -6.046875q-2.46875 -2.28125 -5.984375 -2.28125q-1.734375 0 -3.234375 0.609375q-1.5 0.609375 -2.65625 1.703125q-1.140625 1.078125 -1.890625 2.625q-0.734375 1.53125 -0.859375 3.390625l17.40625 0zm49.539673 17.84375q-1.734375 0.78125 -4.234375 1.546875q-2.484375 0.765625 -5.234375 0.765625q-1.796875 0 -3.375 -0.453125q-1.5625 -0.4375 -2.75 -1.421875q-1.171875 -1.0 -1.8750153 -2.5625q-0.703125 -1.578125 -0.703125 -3.828125l0 -19.25l-4.421875 0l0 -6.59375l4.421875 0l0 -10.890625l8.57814 0l0 10.890625l7.03125 0l0 6.59375l-7.03125 0l0 16.375q0 1.796875 0.921875 2.53125q0.921875 0.734375 2.265625 0.734375q1.34375 0 2.625 -0.4375q1.28125 -0.453125 2.046875 -0.78125l1.734375 6.78125zm19.134583 2.375q-4.09375 0 -7.359375 -1.40625q-3.265625 -1.40625 -5.546875 -3.796875q-2.265625 -2.40625 -3.484375 -5.546875q-1.203125 -3.140625 -1.203125 -6.59375q0 -3.515625 1.203125 -6.65625q1.21875 -3.140625 3.484375 -5.53125q2.28125 -2.40625 5.546875 -3.8125q3.265625 -1.40625 7.359375 -1.40625q4.09375 0 7.328125 1.40625q3.234375 1.40625 5.5 3.8125q2.28125 2.390625 3.484375 5.53125q1.21875 3.140625 1.21875 6.65625q0 3.453125 -1.21875 6.59375q-1.203125 3.140625 -3.453125 5.546875q-2.234375 2.390625 -5.5 3.796875q-3.265625 1.40625 -7.359375 1.40625zm-8.765625 -17.34375q0 2.234375 0.671875 4.0625q0.671875 1.828125 1.859375 3.171875q1.1875 1.34375 2.78125 2.078125q1.59375 0.734375 3.453125 0.734375q1.859375 0 3.453125 -0.734375q1.609375 -0.734375 2.78125 -2.078125q1.1875 -1.34375 1.859375 -3.203125q0.671875 -1.859375 0.671875 -4.09375q0 -2.171875 -0.671875 -4.03125q-0.671875 -1.859375 -1.859375 -3.203125q-1.171875 -1.34375 -2.78125 -2.078125q-1.59375 -0.734375 -3.453125 -0.734375q-1.859375 0 -3.453125 0.765625q-1.59375 0.765625 -2.78125 2.109375q-1.1875 1.34375 -1.859375 3.203125q-0.671875 1.859375 -0.671875 4.03125zm66.48767 17.34375q-3.828125 0 -6.84375 -1.71875q-3.0 -1.734375 -4.734375 -4.75l0 5.828125l-7.4844055 0l0 -46.71875l8.5781555 0l0 19.078125q1.78125 -3.078125 4.6875 -4.765625q2.921875 -1.703125 6.828125 -1.703125q3.265625 0 5.953125 1.40625q2.6875 1.40625 4.640625 3.78125q1.953125 2.359375 3.0 5.5625q1.0625 3.203125 1.0625 6.71875q0 3.65625 -1.1875 6.796875q-1.1875 3.125 -3.296875 5.46875q-2.109375 2.328125 -5.0 3.671875q-2.875 1.34375 -6.203125 1.34375zm-2.359375 -7.296875q2.046875 0 3.765625 -0.796875q1.734375 -0.796875 2.953125 -2.140625q1.21875 -1.34375 1.890625 -3.140625q0.671875 -1.796875 0.671875 -3.84375q0 -2.046875 -0.640625 -3.90625q-0.640625 -1.859375 -1.828125 -3.265625q-1.1875 -1.40625 -2.78125 -2.234375q-1.59375 -0.828125 -3.515625 -0.828125q-2.890625 0 -5.15625 1.890625q-2.265625 1.875 -3.484375 4.640625l0 8.0q0.4375 1.265625 1.296875 2.296875q0.875 1.03125 1.953125 1.765625q1.09375 0.734375 2.375 1.15625q1.28125 0.40625 2.5 0.40625zm39.419678 7.296875q-4.03125 0 -7.296875 -1.375q-3.265625 -1.375 -5.578125 -3.734375q-2.296875 -2.375 -3.546875 -5.515625q-1.234375 -3.140625 -1.234375 -6.59375q0 -3.578125 1.203125 -6.75q1.21875 -3.171875 3.515625 -5.5625q2.3125 -2.40625 5.609375 -3.8125q3.296875 -1.40625 7.390625 -1.40625q4.09375 0 7.328125 1.40625q3.234375 1.40625 5.5 3.78125q2.28125 2.359375 3.453125 5.5q1.1875 3.140625 1.1875 6.53125q0 0.828125 -0.03125 1.59375q-0.03125 0.765625 -0.15625 1.28125l-25.921875 0q0.203125 1.984375 0.96875 3.53125q0.765625 1.53125 1.984375 2.625q1.21875 1.078125 2.75 1.65625q1.53125 0.578125 3.203125 0.578125q2.5625 0 4.828125 -1.25q2.265625 -1.25 3.109375 -3.296875l7.359375 2.046875q-1.859375 3.84375 -5.921875 6.3125q-4.0625 2.453125 -9.703125 2.453125zm8.703125 -20.21875q-0.3125 -3.78125 -2.78125 -6.046875q-2.46875 -2.28125 -5.984375 -2.28125q-1.734375 0 -3.234375 0.609375q-1.5 0.609375 -2.65625 1.703125q-1.140625 1.078125 -1.890625 2.625q-0.734375 1.53125 -0.859375 3.390625l17.40625 0zm42.117798 20.21875q-4.21875 0 -8.265625 -1.34375q-4.03125 -1.34375 -6.90625 -3.84375l3.203125 -5.375q3.078125 2.171875 5.984375 3.296875q2.90625 1.125 5.796875 1.125q2.546875 0 4.015625 -0.953125q1.484375 -0.96875 1.484375 -2.765625q0 -1.796875 -1.734375 -2.625q-1.71875 -0.828125 -5.625 -1.921875q-3.265625 -0.890625 -5.578125 -1.71875q-2.296875 -0.828125 -3.703125 -1.890625q-1.40625 -1.0625 -2.046875 -2.4375q-0.640625 -1.375 -0.640625 -3.296875q0 -2.546875 0.984375 -4.59375q1.0 -2.0625 2.78125 -3.5q1.796875 -1.4375 4.1875 -2.203125q2.40625 -0.765625 5.234375 -0.765625q3.765625 0 7.0625 1.09375q3.296875 1.078125 6.046875 3.515625l-3.453125 5.171875q-2.5625 -1.90625 -4.96875 -2.796875q-2.390625 -0.90625 -4.75 -0.90625q-2.1875 0 -3.65625 0.90625q-1.46875 0.890625 -1.46875 2.875q0 0.890625 0.34375 1.46875q0.359375 0.578125 1.125 1.03125q0.765625 0.4375 2.015625 0.859375q1.25 0.40625 3.109375 0.859375q3.453125 0.890625 5.90625 1.796875q2.46875 0.890625 4.03125 2.046875q1.578125 1.140625 2.3125 2.65625q0.734375 1.5 0.734375 3.609375q0 4.921875 -3.65625 7.78125q-3.640625 2.84375 -9.90625 2.84375zm34.620453 0q-4.09375 0 -7.359375 -1.40625q-3.265625 -1.40625 -5.546875 -3.796875q-2.265625 -2.40625 -3.484375 -5.546875q-1.203125 -3.140625 -1.203125 -6.59375q0 -3.515625 1.203125 -6.65625q1.21875 -3.140625 3.484375 -5.53125q2.28125 -2.40625 5.546875 -3.8125q3.265625 -1.40625 7.359375 -1.40625q4.09375 0 7.328125 1.40625q3.234375 1.40625 5.5 3.8125q2.28125 2.390625 3.484375 5.53125q1.21875 3.140625 1.21875 6.65625q0 3.453125 -1.21875 6.59375q-1.203125 3.140625 -3.453125 5.546875q-2.234375 2.390625 -5.5 3.796875q-3.265625 1.40625 -7.359375 1.40625zm-8.765625 -17.34375q0 2.234375 0.671875 4.0625q0.671875 1.828125 1.859375 3.171875q1.1875 1.34375 2.78125 2.078125q1.59375 0.734375 3.453125 0.734375q1.859375 0 3.453125 -0.734375q1.609375 -0.734375 2.78125 -2.078125q1.1875 -1.34375 1.859375 -3.203125q0.671875 -1.859375 0.671875 -4.09375q0 -2.171875 -0.671875 -4.03125q-0.671875 -1.859375 -1.859375 -3.203125q-1.171875 -1.34375 -2.78125 -2.078125q-1.59375 -0.734375 -3.453125 -0.734375q-1.859375 0 -3.453125 0.765625q-1.59375 0.765625 -2.78125 2.109375q-1.1875 1.34375 -1.859375 3.203125q-0.671875 1.859375 -0.671875 4.03125z" fill-rule="nonzero"/><path fill="#69b7cf" d="m88.519 359.4398q0 -3.515625 1.203125 -6.65625q1.21875 -3.140625 3.515625 -5.5q2.3125 -2.375 5.578125 -3.78125q3.265625 -1.40625 7.359375 -1.40625q5.5 0 9.375 2.375q3.875 2.359375 5.796875 6.203125l-8.390625 2.5625q-1.078125 -1.859375 -2.875 -2.84375q-1.796875 -1.0 -3.96875 -1.0q-1.859375 0 -3.453125 0.734375q-1.59375 0.734375 -2.78125 2.046875q-1.1875 1.3125 -1.859375 3.171875q-0.671875 1.84375 -0.671875 4.09375q0 2.234375 0.703125 4.09375q0.703125 1.859375 1.890625 3.203125q1.1875 1.34375 2.78125 2.078125q1.59375 0.734375 3.390625 0.734375q2.3125 0 4.25 -1.140625q1.953125 -1.15625 2.734375 -2.828125l8.375 2.5625q-1.71875 3.84375 -5.6875 6.28125q-3.96875 2.421875 -9.546875 2.421875q-4.09375 0 -7.359375 -1.40625q-3.265625 -1.40625 -5.578125 -3.796875q-2.296875 -2.40625 -3.546875 -5.578125q-1.234375 -3.171875 -1.234375 -6.625zm53.369675 17.40625q-4.09375 0 -7.359375 -1.40625q-3.265625 -1.40625 -5.546875 -3.796875q-2.265625 -2.40625 -3.484375 -5.546875q-1.203125 -3.140625 -1.203125 -6.59375q0 -3.515625 1.203125 -6.65625q1.21875 -3.140625 3.484375 -5.53125q2.28125 -2.40625 5.546875 -3.8125q3.265625 -1.40625 7.359375 -1.40625q4.09375 0 7.328125 1.40625q3.234375 1.40625 5.5 3.8125q2.28125 2.390625 3.484375 5.53125q1.21875 3.140625 1.21875 6.65625q0 3.453125 -1.21875 6.59375q-1.203125 3.140625 -3.453125 5.546875q-2.234375 2.390625 -5.5 3.796875q-3.265625 1.40625 -7.359375 1.40625zm-8.765625 -17.34375q0 2.234375 0.671875 4.0625q0.671875 1.828125 1.859375 3.171875q1.1875 1.34375 2.78125 2.078125q1.59375 0.734375 3.453125 0.734375q1.859375 0 3.453125 -0.734375q1.609375 -0.734375 2.78125 -2.078125q1.1875 -1.34375 1.859375 -3.203125q0.671875 -1.859375 0.671875 -4.09375q0 -2.171875 -0.671875 -4.03125q-0.671875 -1.859375 -1.859375 -3.203125q-1.171875 -1.34375 -2.78125 -2.078125q-1.59375 -0.734375 -3.453125 -0.734375q-1.859375 0 -3.453125 0.765625q-1.59375 0.765625 -2.78125 2.109375q-1.1875 1.34375 -1.859375 3.203125q-0.671875 1.859375 -0.671875 4.03125zm84.158936 16.703125l-8.578125 0l0 -18.8125q0 -4.03125 -1.375 -5.890625q-1.375 -1.859375 -3.8125 -1.859375q-2.546875 0 -4.796875 1.953125q-2.234375 1.953125 -3.203125 5.09375l0 19.515625l-8.578125 0l0 -18.8125q0 -4.03125 -1.375 -5.890625q-1.375 -1.859375 -3.796875 -1.859375q-2.5 0 -4.78125 1.921875q-2.265625 1.921875 -3.21875 5.0625l0 19.578125l-8.578125 0l0 -33.53125l7.734375 0l0 6.203125q1.859375 -3.265625 5.09375 -5.015625q3.234375 -1.765625 7.390625 -1.765625q4.234375 0 6.53125 2.046875q2.296875 2.046875 2.9375 5.046875q2.046875 -3.453125 5.1875 -5.265625q3.140625 -1.828125 7.171875 -1.828125q3.078125 0 5.046875 1.15625q1.984375 1.140625 3.078125 3.0q1.09375 1.859375 1.5 4.234375q0.421875 2.359375 0.421875 4.796875l0 20.921875zm27.583893 0.640625q-3.96875 0 -6.921875 -1.75q-2.9375 -1.765625 -4.59375 -4.78125l0 19.515625l-8.578125 0l0 -47.15625l7.484375 0l0 5.75q1.859375 -2.9375 4.796875 -4.625q2.953125 -1.703125 6.78125 -1.703125q3.40625 0 6.28125 1.375q2.875 1.375 4.953125 3.71875q2.078125 2.328125 3.265625 5.5q1.1875 3.15625 1.1875 6.6875q0 3.640625 -1.09375 6.84375q-1.078125 3.203125 -3.03125 5.578125q-1.953125 2.359375 -4.640625 3.703125q-2.6875 1.34375 -5.890625 1.34375zm-2.875 -7.296875q1.921875 0 3.546875 -0.828125q1.625 -0.828125 2.78125 -2.234375q1.15625 -1.421875 1.796875 -3.265625q0.640625 -1.859375 0.640625 -3.84375q0 -2.109375 -0.703125 -3.9375q-0.703125 -1.828125 -1.953125 -3.171875q-1.25 -1.34375 -2.953125 -2.109375q-1.6875 -0.765625 -3.671875 -0.765625q-1.21875 0 -2.5 0.421875q-1.28125 0.40625 -2.375 1.171875q-1.078125 0.765625 -1.953125 1.796875q-0.859375 1.015625 -1.296875 2.234375l0 7.875q1.140625 2.875 3.515625 4.765625q2.375 1.890625 5.125 1.890625zm23.294678 -40.0625l8.578125 0l0 35.96875q0 1.859375 0.890625 2.890625q0.890625 1.015625 2.5625 1.015625q0.765625 0 1.6875 -0.25q0.9375 -0.265625 1.765625 -0.65625l1.15625 6.53125q-1.734375 0.828125 -4.046875 1.28125q-2.296875 0.453125 -4.15625 0.453125q-4.03125 0 -6.234375 -2.140625q-2.203125 -2.15625 -2.203125 -6.125l0 -38.96875zm20.350464 46.71875l0 -33.53125l8.578125 0l0 33.53125l-8.578125 0zm0 -38.203125l0 -8.515625l8.578125 0l0 8.515625l-8.578125 0zm14.210602 21.4375q0 -3.515625 1.203125 -6.65625q1.21875 -3.140625 3.515625 -5.5q2.3125 -2.375 5.578125 -3.78125q3.265625 -1.40625 7.359375 -1.40625q5.5 0 9.375 2.375q3.875 2.359375 5.796875 6.203125l-8.390625 2.5625q-1.078125 -1.859375 -2.875 -2.84375q-1.796875 -1.0 -3.96875 -1.0q-1.859375 0 -3.453125 0.734375q-1.59375 0.734375 -2.78125 2.046875q-1.1875 1.3125 -1.859375 3.171875q-0.671875 1.84375 -0.671875 4.09375q0 2.234375 0.703125 4.09375q0.703125 1.859375 1.890625 3.203125q1.1875 1.34375 2.78125 2.078125q1.59375 0.734375 3.390625 0.734375q2.3125 0 4.25 -1.140625q1.953125 -1.15625 2.734375 -2.828125l8.375 2.5625q-1.71875 3.84375 -5.6875 6.28125q-3.96875 2.421875 -9.546875 2.421875q-4.09375 0 -7.359375 -1.40625q-3.265625 -1.40625 -5.578125 -3.796875q-2.296875 -2.40625 -3.546875 -5.578125q-1.234375 -3.171875 -1.234375 -6.625zm47.361572 17.40625q-2.4375 0 -4.546875 -0.796875q-2.109375 -0.796875 -3.65625 -2.234375q-1.53125 -1.453125 -2.40625 -3.375q-0.859375 -1.921875 -0.859375 -4.21875q0 -2.375 1.0625 -4.390625q1.0625 -2.015625 2.9375 -3.421875q1.890625 -1.40625 4.515625 -2.203125q2.625 -0.796875 5.765625 -0.796875q2.234375 0 4.375 0.390625q2.15625 0.375 3.8125 1.078125l0 -1.921875q0 -3.328125 -1.890625 -5.109375q-1.890625 -1.796875 -5.59375 -1.796875q-2.6875 0 -5.25 0.96875q-2.5625 0.953125 -5.25 2.796875l-2.625 -5.4375q6.46875 -4.28125 13.953125 -4.28125q7.234375 0 11.234375 3.546875q4.0 3.546875 4.0 10.28125l0 10.421875q0 1.34375 0.46875 1.921875q0.484375 0.578125 1.578125 0.640625l0 7.296875q-2.171875 0.453125 -3.78125 0.453125q-2.421875 0 -3.734375 -1.09375q-1.3125 -1.09375 -1.640625 -2.875l-0.1875 -1.859375q-2.234375 2.9375 -5.4375 4.484375q-3.203125 1.53125 -6.84375 1.53125zm2.421875 -6.265625q2.171875 0 4.125 -0.765625q1.953125 -0.78125 3.046875 -2.0625q1.40625 -1.078125 1.40625 -2.421875l0 -3.84375q-1.53125 -0.578125 -3.328125 -0.921875q-1.796875 -0.359375 -3.453125 -0.359375q-3.328125 0 -5.4375 1.515625q-2.109375 1.5 -2.109375 3.796875q0 2.171875 1.65625 3.625q1.671875 1.4375 4.09375 1.4375zm44.995575 3.890625q-1.734375 0.78125 -4.234375 1.546875q-2.484375 0.765625 -5.234375 0.765625q-1.796875 0 -3.375 -0.453125q-1.5625 -0.4375 -2.75 -1.421875q-1.171875 -1.0 -1.875 -2.5625q-0.703125 -1.578125 -0.703125 -3.828125l0 -19.25l-4.421875 0l0 -6.59375l4.421875 0l0 -10.890625l8.578125 0l0 10.890625l7.03125 0l0 6.59375l-7.03125 0l0 16.375q0 1.796875 0.921875 2.53125q0.921875 0.734375 2.265625 0.734375q1.34375 0 2.625 -0.4375q1.28125 -0.453125 2.046875 -0.78125l1.734375 6.78125zm19.197083 2.375q-4.03125 0 -7.296875 -1.375q-3.265625 -1.375 -5.578125 -3.734375q-2.296875 -2.375 -3.546875 -5.515625q-1.234375 -3.140625 -1.234375 -6.59375q0 -3.578125 1.203125 -6.75q1.21875 -3.171875 3.515625 -5.5625q2.3125 -2.40625 5.609375 -3.8125q3.296875 -1.40625 7.390625 -1.40625q4.09375 0 7.328125 1.40625q3.234375 1.40625 5.5 3.78125q2.28125 2.359375 3.453125 5.5q1.1875 3.140625 1.1875 6.53125q0 0.828125 -0.03125 1.59375q-0.03125 0.765625 -0.15625 1.28125l-25.921875 0q0.203125 1.984375 0.96875 3.53125q0.765625 1.53125 1.984375 2.625q1.21875 1.078125 2.75 1.65625q1.53125 0.578125 3.203125 0.578125q2.5625 0 4.828125 -1.25q2.265625 -1.25 3.109375 -3.296875l7.359375 2.046875q-1.859375 3.84375 -5.921875 6.3125q-4.0625 2.453125 -9.703125 2.453125zm8.703125 -20.21875q-0.3125 -3.78125 -2.78125 -6.046875q-2.46875 -2.28125 -5.984375 -2.28125q-1.734375 0 -3.234375 0.609375q-1.5 0.609375 -2.65625 1.703125q-1.140625 1.078125 -1.890625 2.625q-0.734375 1.53125 -0.859375 3.390625l17.40625 0zm27.976562 20.21875q-3.453125 0 -6.40625 -1.34375q-2.9375 -1.34375 -5.0625 -3.703125q-2.109375 -2.375 -3.296875 -5.546875q-1.171875 -3.171875 -1.171875 -6.8125q0 -3.65625 1.109375 -6.78125q1.125 -3.140625 3.109375 -5.5q1.984375 -2.375 4.734375 -3.71875q2.75 -1.34375 6.015625 -1.34375q3.71875 0 6.6875 1.796875q2.984375 1.78125 4.640625 4.671875l0 -19.078125l8.578125 0l0 36.859375q0 1.34375 0.4375 1.921875q0.453125 0.578125 1.546875 0.640625l0 7.296875q-2.234375 0.453125 -3.640625 0.453125q-2.3125 0 -3.78125 -1.15625q-1.46875 -1.15625 -1.671875 -3.015625l-0.1875 -2.109375q-1.859375 3.203125 -5.03125 4.84375q-3.15625 1.625 -6.609375 1.625zm2.234375 -7.296875q1.21875 0 2.5 -0.40625q1.28125 -0.421875 2.359375 -1.1875q1.09375 -0.78125 1.953125 -1.796875q0.875 -1.03125 1.3125 -2.234375l0 -8.0q-0.515625 -1.421875 -1.4375 -2.59375q-0.921875 -1.1875 -2.109375 -2.046875q-1.1875 -0.875 -2.5 -1.375q-1.3125 -0.515625 -2.59375 -0.515625q-1.921875 0 -3.546875 0.828125q-1.625 0.828125 -2.78125 2.28125q-1.15625 1.4375 -1.796875 3.296875q-0.640625 1.84375 -0.640625 3.828125q0 2.109375 0.703125 3.90625q0.703125 1.796875 1.921875 3.140625q1.21875 1.34375 2.90625 2.109375q1.703125 0.765625 3.75 0.765625zm44.421143 -8.25q0 -3.140625 1.015625 -5.640625q1.03125 -2.5 4.234375 -4.34375q0.953125 -0.578125 2.359375 -1.3125q1.40625 -0.734375 2.75 -1.75q1.34375 -1.03125 2.265625 -2.40625q0.9375 -1.390625 0.9375 -3.171875q0 -1.34375 -0.515625 -2.359375q-0.5 -1.03125 -1.34375 -1.734375q-0.828125 -0.703125 -1.953125 -1.0625q-1.109375 -0.359375 -2.265625 -0.359375q-1.40625 0 -2.5625 0.484375q-1.15625 0.484375 -2.078125 1.21875q-0.921875 0.734375 -1.671875 1.671875q-0.734375 0.921875 -1.234375 1.75l-5.578125 -3.84375q0.84375 -1.984375 2.21875 -3.515625q1.375 -1.53125 3.125 -2.578125q1.765625 -1.0625 3.8125 -1.609375q2.046875 -0.546875 4.21875 -0.546875q2.4375 0 4.796875 0.703125q2.3749695 0.703125 4.2655945 2.25q1.890625 1.53125 3.0625 3.9375q1.1875 2.390625 1.1875 5.71875q0 2.046875 -0.484375 3.625q-0.46875 1.5625 -1.375 2.84375q-0.890625 1.28125 -2.109375 2.3125q-1.203125 1.015625 -2.7499695 1.96875q-1.28125 0.765625 -2.5625 1.46875q-1.28125 0.703125 -2.34375 1.578125q-1.046875 0.859375 -1.71875 1.984375q-0.671875 1.109375 -0.671875 2.71875l-7.03125 0zm0.125 14.90625l0 -8.828125l7.109375 0l0 8.828125l-7.109375 0z" fill-rule="nonzero"/></g></svg>