<?xml version="1.0" encoding="utf-8"?>
<svg version="1.2" baseProfile="tiny"
	 id="svg2" xmlns:svg="http://www.w3.org/2000/svg" xmlns:dc="http://purl.org/dc/elements/1.1/" xmlns:cc="http://creativecommons.org/ns#" xmlns:rdf="http://www.w3.org/1999/02/22-rdf-syntax-ns#"
	 xmlns="http://www.w3.org/2000/svg" xmlns:xlink="http://www.w3.org/1999/xlink" x="0px" y="0px" viewBox="-290 412 668 150"
	 xml:space="preserve">
<g id="layer1" transform="translate(-54,-181.79077)">
	<path id="rect2985-1" fill="#B4B4B4" d="M209.5,743.8h215c4.1,0,7.5-3.4,7.5-7.5v-135c0-4.1-3.4-7.5-7.5-7.5h-215
		c-4.1,0-7.5,3.4-7.5,7.5v135C202,740.4,205.4,743.8,209.5,743.8z"/>
	<g id="flowRoot3787">
	</g>
	<path id="rect2985" fill="#B4B4B4" d="M-229.5,593.8h217c3.6,0,6.5,2.9,6.5,6.5v137c0,3.6-2.9,6.5-6.5,6.5h-217
		c-3.6,0-6.5-2.9-6.5-6.5v-137C-236,596.7-233.1,593.8-229.5,593.8z"/>
	<g id="flowRoot3844">
	</g>
	<g id="g3971">
		<path id="rect3824" fill="#C8C8C8" d="M-85.5,637.8h71c4.7,0,8.5,3.8,8.5,8.5v41c0,4.7-3.8,8.5-8.5,8.5h-71
			c-4.7,0-8.5-3.8-8.5-8.5v-41C-94,641.6-90.2,637.8-85.5,637.8z"/>
		<text id="text23" transform="matrix(0.9844 0 0 1 -74.3291 663.4763)" font-family="'Abel'" font-size="18.0928px">WCode</text>
		<text id="text25" transform="matrix(0.9844 0 0 1 -78.1816 685.1873)" font-family="'Abel'" font-size="18.0928px">Encoder</text>
		<text id="text27" transform="matrix(0.9844 0 0 1 -50.6162 706.8992)" font-family="'Abel'" font-size="18.0928px"> </text>
	</g>
	<g id="g4013">
		<g id="g4006">
			<path id="rect3824-0" fill="#C8C8C8" d="M210,637.8h72c4.4,0,8,3.6,8,8v42c0,4.4-3.6,8-8,8h-72c-4.4,0-8-3.6-8-8v-42
				C202,641.4,205.6,637.8,210,637.8z"/>
		</g>
		<text id="text32" transform="matrix(0.9838 0 0 1 221.6975 663.7605)" font-family="'Abel'" font-size="18.0928px">WCode</text>
		<text id="text34" transform="matrix(0.9838 0 0 1 217.5818 685.4714)" font-family="'Abel'" font-size="18.0928px">Decoder</text>
		<text id="text36" transform="matrix(0.9838 0 0 1 245.208 707.1824)" font-family="'Abel'" font-size="18.0928px"> </text>
	</g>
	<g id="g3942" transform="translate(2)">
		<path id="path3915" fill="#8C8C8C" d="M182.5,668.4H2c0,0-1-0.5-1-1.6c0-1.2,1-1.6,1-1.6h180.5v-6.1l9.8,7.6l-9.8,7.6V668.4z"/>
	</g>
	<text id="text13" transform="matrix(1 0 0 1 -154 618.8622)" font-family="'Abel'" font-size="18px">Sender</text>
	<text id="text16" transform="matrix(1 0 0 1 286.9248 618.3046)" font-family="'Abel'" font-size="18px">Receiver</text>
</g>
</svg>
