<svg xmlns='http://www.w3.org/2000/svg' x='0px' y='0px'
	viewBox="-419 259 120 44">
	<g transform="matrix(0.19140679,0,0,0.18378327,-55.667615,776.73049)">
		<g transform="translate(-319.88919,374.56503)">
			<path fill="#A9A9A9" stroke="#A9A9A9" d="M-1486.2-3119c15.6,0.2,33.3-5.1,34.1-31.3c-7.2-0.7-28.1,3.1-29.5,22.7
			 c-1.1,14.4-6.5,7.2-8.8-3.4c-3.4,1.1-0.9,0.2-5.4,1.9c11.2,18,5.8,27.4,8,27.2C-1485.4-3101.9-1486.1-3110.2-1486.2-3119
			 L-1486.2-3119L-1486.2-3119z"/>
			<path fill="#FFFFFF" stroke="#A9A9A9" stroke-width="3" stroke-linejoin="round" d="M-1488.1-2980c2.1,0.6,5.1,1.5,7.6,2.7
			 c6.6,3.2,14-1,21.6-6c7.5-4.9,10.1-7.5,13.5-10.3c13.7-12.6,29.2-34.2,26.7-70c-2.9-26.7-30-56.2-69.5-34
			 c-39.5-22.1-66.6,7.4-69.5,34c-2.5,35.8,13,57.4,26.7,70c3.4,2.8,6.1,5.4,13.5,10.3c7.5,5,14.9,9.2,21.6,6
			 C-1493.2-2978.5-1490.2-2979.4-1488.1-2980z"/>
		</g>
		<text transform="matrix(5.2245 0 0 5.4412 -1637.79 -2615.0295)" fill="#69B7CF" font-family="'Times New Roman'" font-size="35.0019px">=</text>
		<text transform="matrix(5.2245 0 0 5.4412 -1444.376 -2615.0295)" fill="#A9A9A9" font-family="'Times New Roman'" font-size="36px">1</text>
	</g>
</svg>
