<svg version="1.1" xmlns="http://www.w3.org/2000/svg" x="0px" y="0px"
	 viewBox="0 0 76 76" enable-background="new 0 0 76 76">
	<path fill="#D9D9D9" d="M67.5,72.5h-59c-2.8,0-5-2.3-5-5v-59c0-2.8,2.3-5,5-5h59c2.8,0,5,2.3,5,5v59C72.5,70.3,70.3,72.5,67.5,72.5z
		"/>
	<g>
		<path fill="#FFFFFF" d="M28.4,21.2c-9.3,0-16.8,7.5-16.8,16.8s7.5,16.8,16.8,16.8c9.7,0,16.1-6.8,16.1-16.4c0-1.1-0.1-1.9-0.3-2.8
			H28.4v5.8h9.5c-0.4,2.5-2.9,7.2-9.5,7.2C22.7,48.6,18,43.8,18,38s4.7-10.6,10.4-10.6c3.3,0,5.4,1.4,6.7,2.6l4.6-4.4
			C36.7,22.9,32.9,21.2,28.4,21.2"/>
		<polyline fill="#FFFFFF" points="59.6,30.8 54.8,30.8 54.8,35.6 50,35.6 50,40.4 54.8,40.4 54.8,45.2 59.6,45.2 59.6,40.4 
			64.4,40.4 64.4,35.6 59.6,35.6 59.6,30.8 	"/>
	</g>
</svg>
