<svg version="1.1" xmlns="http://www.w3.org/2000/svg" x="0px" y="0px"
	 viewBox="0 0 60 60" enable-background="new 0 0 60 60">
	<path fill="#D9D9D9" d="M3.4,0.9C3.9,1,4.1,1.4,4.4,1.7c5.7,5.7,24.4,24.8,28.1,28.5c0.6,0.6,0.7,1,0,1.7
		c-9.1,9.1-18.2,18.2-27.4,27.3c-1,1-1.6,1-2.5-0.3c-0.4-0.6-0.6-1.3-0.6-2.1c0-17.8,0-35.7,0-53.5c0-0.8,0.2-1.4,0.6-2
		C2.9,1.2,3.1,1,3.4,0.9z"/>
	<path fill="#D9D9D9" d="M6.2,0.1c2.5,1.3,3.9,2.2,5.9,3.3c10,5.6,20.1,11.2,30.1,16.8c1.4,0.8,1.4,0.8,0.3,1.9
		c-2.3,2.3-4.6,4.5-6.8,6.8c-0.6,0.6-1,0.6-1.6,0C24.8,19.6,15.6,10.2,6.3,0.7C6.2,0.6,6.1,0.5,6.1,0.4C6,0.3,5.7-0.2,6.2,0.1z"/>
	<path fill="#D9D9D9" d="M57.9,30.4c-0.1,1.3-0.9,2.1-2,2.7c-2.8,1.6-8.8,4.9-9,5c-2.5,1.4-2.5,1.4-4.5-0.7c-1.8-1.8-3.5-3.7-5.3-5.5
		c-0.5-0.5-0.5-0.9,0-1.4c2.6-2.6,5.2-5.2,7.8-7.8c0.5-0.5,0.9-0.6,1.6-0.2c3.2,1.8,6.3,3.6,9.5,5.4C56.8,28.5,57.7,29.2,57.9,30.4z"
		/>
	<path fill="#D9D9D9" d="M9.7,58.1c0.1-0.5,0.5-0.7,0.8-1c7.8-7.8,15.6-15.6,23.4-23.4c0.8-0.8,1.3-0.9,2.1,0c1.9,2,3.8,3.9,5.8,5.8
		c0.8,0.7,0.6,1-0.3,1.5c-10.2,5.6-20.4,11.2-30.6,16.8C10.5,58,10.2,58.3,9.7,58.1z"/>
</svg>
