<svg version="1.1"
	 xmlns="http://www.w3.org/2000/svg" x="0px" y="0px" viewBox="-9 1.4 200 200"
	 enable-background="new -9 1.4 200 200">
	<rect id="rect4147" x="-9.2" y="1.4" fill="#FFFFFF" fill-opacity="0.9306" width="200.4" height="200"/>
	<path id="rect3755_1_" fill="none" d="M91,108.6"/>
	<path id="rect3958_2_" fill="none" d="M91,86.4"/>
	<g id="Dash">
		<path fill="#D9D9D9" d="M163,51c0,3.9-3.1,7-7,7H26c-3.9,0-7-3.1-7-7v0c0-3.9,3.1-7,7-7h130C159.9,44,163,47.1,163,51L163,51z"/>
	</g>
	<g id="Dash_1_">
		<path fill="#D9D9D9" d="M163,101c0,3.9-3.1,7-7,7H26c-3.9,0-7-3.1-7-7v0c0-3.9,3.1-7,7-7h130C159.9,94,163,97.1,163,101L163,101z"
			/>
	</g>
	<g id="Dash_2_">
		<path fill="#D9D9D9" d="M163,151c0,3.9-3.1,7-7,7H26c-3.9,0-7-3.1-7-7l0,0c0-3.9,3.1-7,7-7h130C159.9,144,163,147.1,163,151
			L163,151z"/>
	</g>
</svg>
