<?xml version="1.0" encoding="utf-8"?>
<!-- Generator: Adobe Illustrator 18.0.0, SVG Export Plug-In . SVG Version: 6.00 Build 0)  -->
<!DOCTYPE svg PUBLIC "-//W3C//DTD SVG 1.1//EN" "http://www.w3.org/Graphics/SVG/1.1/DTD/svg11.dtd">
<svg version="1.1"
	 id="svg2" xmlns:rdf="http://www.w3.org/1999/02/22-rdf-syntax-ns#" xmlns:dc="http://purl.org/dc/elements/1.1/" xmlns:sodipodi="http://sodipodi.sourceforge.net/DTD/sodipodi-0.dtd" xmlns:cc="http://creativecommons.org/ns#" xmlns:inkscape="http://www.inkscape.org/namespaces/inkscape" xmlns:svg="http://www.w3.org/2000/svg" sodipodi:docname="Menu-icon.svg" inkscape:version="0.91 r13725" inkscape:export-xdpi="12.995515" inkscape:export-ydpi="12.995515" inkscape:export-filename="Menu-icon.png"
	 xmlns="http://www.w3.org/2000/svg" xmlns:xlink="http://www.w3.org/1999/xlink" x="0px" y="0px" viewBox="-9 1.4 200 200"
	 enable-background="new -9 1.4 200 200" xml:space="preserve">
<sodipodi:namedview  inkscape:cy="-10.730857" pagecolor="#ffffff" showgrid="false" borderopacity="1.0" fit-margin-left="0" bordercolor="#666666" inkscape:cx="108.18811" fit-margin-top="0" id="base" inkscape:zoom="1.4" fit-margin-right="0" inkscape:current-layer="layer1" fit-margin-bottom="0" inkscape:window-y="-8" inkscape:document-units="px" inkscape:window-maximized="1" inkscape:window-x="-8" inkscape:window-height="1057" inkscape:pageshadow="2" inkscape:pageopacity="0.0" inkscape:window-width="1920">
	</sodipodi:namedview>
<rect id="rect4147" x="-9.2" y="1.4" fill="#FFFFFF" fill-opacity="0.9306" width="200.4" height="200"/>
<path id="rect3755_1_" fill="none" d="M91,108.6"/>
<path id="rect3958_2_" fill="none" d="M91,86.4"/>
<g id="Dash">
	<path fill="#D9D9D9" d="M163,51c0,3.9-3.1,7-7,7H26c-3.9,0-7-3.1-7-7v0c0-3.9,3.1-7,7-7h130C159.9,44,163,47.1,163,51L163,51z"/>
</g>
<g id="Dash_1_">
	<path fill="#D9D9D9" d="M163,101c0,3.9-3.1,7-7,7H26c-3.9,0-7-3.1-7-7v0c0-3.9,3.1-7,7-7h130C159.9,94,163,97.1,163,101L163,101z"
		/>
</g>
<g id="Dash_2_">
	<path fill="#D9D9D9" d="M163,151c0,3.9-3.1,7-7,7H26c-3.9,0-7-3.1-7-7l0,0c0-3.9,3.1-7,7-7h130C159.9,144,163,147.1,163,151
		L163,151z"/>
</g>
</svg>
