<?xml version="1.0" encoding="UTF-8"?>
<svg version="1.1" viewBox="193.4 40.5 116 116" xml:space="preserve" xmlns="http://www.w3.org/2000/svg"><path d="m193.4 137.17v-19.333h38.667v38.667h-38.667zm33.143 0v-13.81h-27.619v27.619h27.619zm-22.095 0v-8.2857h16.571v16.571h-16.571zm33.143 13.81v-5.5238h5.5238v-5.5238h-5.5238v-5.5238h5.5238v5.5238h11.048v-11.048h-5.5238v-5.5238h-11.048v-11.048h5.5238v-11.048h-5.5238v5.5238h-5.5238v5.5238h-5.5238v-5.5238h5.5238v-5.5238h-5.5238v-5.5238h11.048v-5.5238h-11.048v-5.5238h11.048v-22.095h5.5238v-5.5238h-5.5238v-11.048h5.5238v-5.5238h5.5238v22.095h-5.5238v16.571h5.5238v-5.5238h5.5238v-5.5238h5.5238v-5.5238h-5.5238v-5.5238h5.5238v-5.5238h-5.5238v-11.048h11.048v5.5238h-5.5238v5.5238h5.5238v5.5238h-5.5238v5.5238h5.5238v22.095h-11.048v5.5238h-5.5238v5.5238h-5.5238v5.5238h16.571v-5.5238h11.048v-11.048h16.571v5.5238h-11.048v5.5238h-5.5238v5.5238h-11.048v5.5238h5.5238v5.5238h-5.5238v5.5238h-5.5238v5.5238h11.048v-5.5238h5.5238v11.048h5.5238v-16.571h-5.5238v-5.5238h5.5238v5.5238h5.5238v-5.5238h5.5238v5.5238h5.5238v5.5238h5.5238v5.5238h-5.5238v5.5238h16.571v16.571h-5.5238v5.5238h-5.5238v5.5238h-16.571v-16.571h5.5238v-5.5238h-16.571v-5.5238h-11.048v11.048h5.5238v5.5238h11.048v5.5238h-11.048v5.5238h-11.048v-5.5238h11.048v-5.5238h-5.5238v-5.5238h-5.5238v5.5238h-11.048v5.5238h5.5238v5.5238h-11.048zm55.238-2.7619v-2.7619h11.048v-5.5238h-16.571v11.048h5.5238zm0-16.571v-2.7619h-5.5238v5.5238h5.5238zm-5.5238-11.048v-2.7619h-5.5238v5.5238h5.5238zm-33.143-5.5238v-2.7619h5.5238v-5.5238h-11.048v5.5238h-5.5238v5.5238h11.048zm-11.048-27.619v-2.7619h-5.5238v5.5238h5.5238zm16.571-11.048v-2.7619h-5.5238v5.5238h5.5238zm44.19 44.19v-2.7619h5.5238v5.5238h-5.5238zm-110.48-11.048v-2.7619h5.5238v-11.048h-5.5238v-11.048h11.048v5.5238h5.5238v-5.5238h5.5238v5.5238h-5.5238v11.048h5.5238v-5.5238h5.5238v16.571h-16.571v-5.5238h-5.5238v5.5238h-5.5238zm16.571-5.5238v-2.7619h-5.5238v5.5238h5.5238zm-5.5238-11.048v-2.7619h-5.5238v5.5238h5.5238zm93.905 16.571v-2.7619h11.048v5.5238h-11.048zm-11.048-11.048v-2.7619h5.5238v5.5238h-5.5238zm11.048 0v-2.7619h5.5238v-5.5238h-11.048v-5.5238h11.048v5.5238h5.5238v5.5238h-5.5238v5.5238h-5.5238zm-104.95-38.667v-19.333h38.667v38.667h-38.667zm33.143 0v-13.81h-27.619v27.619h27.619zm-22.095 0v-8.2857h16.571v16.571h-16.571zm66.286 0v-19.333h38.667v38.667h-38.667zm33.143 0v-13.81h-27.619v27.619h27.619zm-22.095 0v-8.2857h16.571v16.571h-16.571z" style="fill:#a9a9a9;stroke-width:.12554"/></svg>
