<?xml version="1.0" encoding="utf-8"?>
<!-- Generator: Adobe Illustrator 18.0.0, SVG Export Plug-In . SVG Version: 6.00 Build 0)  -->
<!DOCTYPE svg PUBLIC "-//W3C//DTD SVG 1.1//EN" "http://www.w3.org/Graphics/SVG/1.1/DTD/svg11.dtd">
<svg version="1.1"
	 id="svg3045" xmlns:rdf="http://www.w3.org/1999/02/22-rdf-syntax-ns#" xmlns:dc="http://purl.org/dc/elements/1.1/" xmlns:sodipodi="http://sodipodi.sourceforge.net/DTD/sodipodi-0.dtd" xmlns:cc="http://creativecommons.org/ns#" xmlns:inkscape="http://www.inkscape.org/namespaces/inkscape" xmlns:svg="http://www.w3.org/2000/svg" sodipodi:docname="Codes Comparision.svg" inkscape:version="0.48.2 r9819" inkscape:export-ydpi="180" inkscape:export-filename="C:\Users\Ujjwal\Programming\WCode\Design\Resource\Codes Comparision - IndieGoGo.png" inkscape:export-xdpi="180"
	 xmlns="http://www.w3.org/2000/svg" xmlns:xlink="http://www.w3.org/1999/xlink" x="0px" y="0px" viewBox="193.4 40.5 116 116"
	 enable-background="new 193.4 40.5 116 116" xml:space="preserve">
<sodipodi:namedview  pagecolor="#ffffff" inkscape:cy="115.95547" bordercolor="#666666" showgrid="false" borderopacity="1" inkscape:cx="129.38938" id="namedview3047" inkscape:zoom="2.1620438" inkscape:current-layer="svg3045" inkscape:window-y="-8" inkscape:window-maximized="1" inkscape:window-x="-8" inkscape:window-height="1058" inkscape:pageshadow="2" inkscape:pageopacity="0" inkscape:window-width="1920" gridtolerance="10" guidetolerance="10" objecttolerance="10">
	</sodipodi:namedview>
<path id="path3002" inkscape:connector-curvature="0" fill="#56B4D1" d="M212.8,156.5h-19.3v-19.3v-19.3h19.3h19.3v19.3v19.3H212.8z
	 M212.8,151h13.8v-13.8v-13.8h-13.8H199v13.8V151H212.8z M212.8,145.5h-8.3v-8.3v-8.3h8.3h8.3v8.3v8.3H212.8z M240.4,156.5h-2.8v-11
	v-11h2.8h2.8v-5.5v-5.5h2.8h2.8v-2.8v-2.8h2.8h2.8v2.8v2.8h5.5h5.5v-8.3v-8.3h-2.8h-2.8v2.8v2.8h-8.3h-8.3v2.8v2.8h-2.8h-2.8v-2.8
	v-2.8h2.8h2.8v-2.8v-2.8h8.3h8.3v-8.3v-8.3h2.8h2.8v-2.8v-2.8h2.8h2.8v2.8v2.8H268h-2.8V93v2.8h5.5h5.5V93v-2.8h2.8h2.8v-2.8v-2.8
	h8.3h8.3v2.8v2.8h2.8h2.8v-2.8v-2.8h2.8h2.8v11v11h-2.8h-2.8V104v-2.8h-2.8h-2.8v8.3v8.3h2.8h2.8v-2.8v-2.8h2.8h2.8v2.8v2.8h-2.8
	h-2.8v2.8v2.8h-2.8h-2.8v2.8v2.8h5.5h5.5v2.8v2.8h-2.8h-2.8v2.8v2.8h-2.8h-2.8v5.5v5.5h2.8h2.8v2.8v2.8h-2.8h-2.8v-2.8V151h-2.8
	h-2.8v-5.5v-5.5h-5.5h-5.5v2.8v2.8h2.8h2.8v5.5v5.5h-5.5h-5.5v-2.8V151h-2.8h-2.8v-2.8v-2.8H268h-2.8v5.5v5.5h-5.5h-5.5v-8.3v-8.3
	h2.8h2.8v2.8v2.8h2.8h2.8v-5.5v-5.5h2.8h2.8v-2.8v-2.8h-5.5h-5.5v2.8v2.8H257h-2.8v-2.8v-2.8h-2.8h-2.8v2.8v2.8h-2.8h-2.8v2.8v2.8
	h2.8h2.8v5.5v5.5h-2.8h-2.8v2.8v2.8L240.4,156.5L240.4,156.5z M279.1,151h2.8v-2.8v-2.8h-2.8h-2.8v-2.8v-2.8h2.8h2.8v-5.5v-5.5h5.5
	h5.5v-5.5v-5.5h-2.8h-2.8v-2.8v-2.8h2.8h2.8v-2.8v-2.8h-2.8h-2.8V104v-2.8h-8.3h-8.3v8.3v8.3h2.8h2.8v2.8v2.8h2.8h2.8v2.8v2.8h-2.8
	h-2.8v2.8v2.8h-2.8h-2.8v5.5v5.5h2.8h2.8v2.8v2.8L279.1,151L279.1,151z M284.6,123.4h-2.8v-2.8v-2.8h2.8h2.8v2.8v2.8H284.6z
	 M284.6,112.3h-2.8v-2.8v-2.8h2.8h2.8v2.8v2.8H284.6z M295.6,139.9h2.8v-2.8v-2.8h-2.8h-2.8v2.8v2.8H295.6z M295.6,101.3h2.8v-2.8
	v-2.8h-2.8h-2.8V93v-2.8h-5.5h-5.5V93v2.8h5.5h5.5v2.8v2.8H295.6z M196.2,112.3h-2.8v-2.8v-2.8h2.8h2.8v-5.5v-5.5h-2.8h-2.8v-5.5
	v-5.5h11h11v2.8v2.8h5.5h5.5v-2.8v-2.8h2.8h2.8v2.8v2.8h2.8h2.8v-2.8v-2.8h2.8h2.8v-2.8v-2.8h-2.8h-2.8v-2.8v-2.8h2.8h2.8v2.8v2.8
	h2.8h2.8v-2.8v-2.8h2.8h2.8v8.3v8.3h-2.8h-2.8V93v2.8h2.8h2.8v2.8v2.8h-5.5h-5.5v-5.5v-5.5h-2.8h-2.8v8.3v8.3h-2.8h-2.8v2.8v2.8
	h-5.5h-5.5v-5.5v-5.5h2.8h2.8v-2.8v-2.8h-5.5h-5.5V93v-2.8h-8.3H199V93v2.8h5.5h5.5v2.8v2.8h2.8h2.8v5.5v5.5h-2.8H210v-2.8v-2.8
	h-5.5H199v2.8v2.8L196.2,112.3L196.2,112.3z M229.3,106.8h2.8V104v-2.8h-2.8h-2.8v2.8v2.8H229.3z M229.3,95.7h2.8V93v-2.8h-2.8h-2.8
	V93v2.8H229.3z M245.9,90.2h2.8v-2.8v-2.8h-2.8h-2.8v2.8v2.8H245.9z M212.8,79.2h-19.3V59.8V40.5h19.3h19.3v19.3v19.3H212.8z
	 M212.8,73.7h13.8V59.8V46h-13.8H199v13.8v13.8H212.8z M212.8,68.1h-8.3v-8.3v-8.3h8.3h8.3v8.3v8.3H212.8z M262.5,79.2h-2.8v-2.8
	v-2.8h2.8h2.8v2.8v2.8H262.5z M290.1,79.2h-19.3V59.8V40.5h19.3h19.3v19.3v19.3H290.1z M290.1,73.7h13.8V59.8V46h-13.8h-13.8v13.8
	v13.8H290.1z M290.1,68.1h-8.3v-8.3v-8.3h8.3h8.3v8.3v8.3H290.1z M245.9,68.1h-8.3v-8.3v-8.3h2.8h2.8v-2.8V46h-2.8h-2.8v-2.8v-2.8
	h5.5h5.5V46v5.5h2.8h2.8v2.8v2.8h2.8h2.8v-8.3v-8.3h2.8h2.8v8.3v8.3h-2.8h-2.8v2.8v2.8H257h-2.8v2.8v2.8L245.9,68.1L245.9,68.1z
	 M248.7,62.6h5.5v-2.8v-2.8h-2.8h-2.8v-2.8v-2.8h-2.8h-2.8v5.5v5.5H248.7z"/>
</svg>
