<?xml version="1.0" encoding="UTF-8" standalone="no"?>
<svg
   xmlns:dc="http://purl.org/dc/elements/1.1/"
   xmlns:cc="http://creativecommons.org/ns#"
   xmlns:rdf="http://www.w3.org/1999/02/22-rdf-syntax-ns#"
   xmlns:svg="http://www.w3.org/2000/svg"
   xmlns="http://www.w3.org/2000/svg"
   style="fill:#d9d9d9"
   id="svg6"
   version="1.1"
   width="21.862499"
   viewBox="0 0 17.489999 17.489999"
   height="21.862499">
  <metadata
     id="metadata12">
    <rdf:RDF>
      <cc:Work
         rdf:about="">
        <dc:format>image/svg+xml</dc:format>
        <dc:type
           rdf:resource="http://purl.org/dc/dcmitype/StillImage" />
        <dc:title></dc:title>
      </cc:Work>
    </rdf:RDF>
  </metadata>
  <defs
     id="defs10" />
  <path
     id="path2"
     d="M 12.5,11 H 11.71 L 11.43,10.73 C 12.41,9.59 13,8.11 13,6.5 13,2.91 10.09,0 6.5,0 2.91,0 0,2.91 0,6.5 0,10.09 2.91,13 6.5,13 8.11,13 9.59,12.41 10.73,11.43 L 11,11.71 v 0.79 l 5,4.99 1.49,-1.49 z m -6,0 C 4.01,11 2,8.99 2,6.5 2,4.01 4.01,2 6.5,2 8.99,2 11,4.01 11,6.5 11,8.99 8.99,11 6.5,11 Z" />
  <path
     style="fill:none"
     id="path4"
     d="M -3,-3 H 21 V 21 H -3 Z" />
</svg>
