<?xml version="1.0" encoding="UTF-8" standalone="no"?>
<!-- Created with Inkscape (http://www.inkscape.org/) -->

<svg
   xmlns:dc="http://purl.org/dc/elements/1.1/"
   xmlns:cc="http://creativecommons.org/ns#"
   xmlns:rdf="http://www.w3.org/1999/02/22-rdf-syntax-ns#"
   xmlns:svg="http://www.w3.org/2000/svg"
   xmlns="http://www.w3.org/2000/svg"
   xmlns:sodipodi="http://sodipodi.sourceforge.net/DTD/sodipodi-0.dtd"
   xmlns:inkscape="http://www.inkscape.org/namespaces/inkscape"
   inkscape:export-ydpi="90"
   inkscape:export-xdpi="90"
   inkscape:export-filename="C:\Users\Ujjwal\Programming\WCode\Design\Logo Full\Logo Full.png"
   sodipodi:docname="Logo Full.svg"
   height="64"
   width="196"
   inkscape:version="0.48.2 r9819"
   version="1.1"
   id="svg2985">
  <metadata
     id="metadata2991">
    <rdf:RDF>
      <cc:Work
         rdf:about="">
        <dc:format>image/svg+xml</dc:format>
        <dc:type
           rdf:resource="http://purl.org/dc/dcmitype/StillImage" />
        <dc:title></dc:title>
      </cc:Work>
    </rdf:RDF>
  </metadata>
  <defs
     id="defs2989">
    <clipPath
       id="clipPath3806"
       clipPathUnits="userSpaceOnUse">
      <path
         inkscape:connector-curvature="0"
         id="path3808"
         d="M 23.842593,-5.1992024 45.235605,67.635021 70.058031,67.30841 96.1869,-10.588282 z"
         style="fill:none;stroke:#000000;stroke-width:1px;stroke-linecap:butt;stroke-linejoin:miter;stroke-opacity:1" />
    </clipPath>
    <clipPath
       id="clipPath3797"
       clipPathUnits="userSpaceOnUse">
      <path
         inkscape:connector-curvature="0"
         id="path3799"
         d="M 10.288242,-4.2193698 35.437279,71.554351 48.011797,70.247907 20.73979,-11.241503 z"
         style="fill:none;stroke:#000000;stroke-width:1px;stroke-linecap:butt;stroke-linejoin:miter;stroke-opacity:1" />
    </clipPath>
    <clipPath
       id="clipPath3788"
       clipPathUnits="userSpaceOnUse">
      <path
         inkscape:connector-curvature="0"
         id="path3790"
         d="M 8.1652716,-5.1992024 32.661087,64.858828 15.840627,67.635021 -3.9193304,-5.6891187 z"
         style="fill:none;stroke:#000000;stroke-width:1px;stroke-linecap:butt;stroke-linejoin:miter;stroke-opacity:1" />
    </clipPath>
    <clipPath
       id="clipPath3778"
       clipPathUnits="userSpaceOnUse">
      <path
         sodipodi:nodetypes="ccccccc"
         inkscape:connector-curvature="0"
         id="path3780"
         d="m 82.624317,-6.5056459 32.995923,0.1633054 0,69.2415005 -46.060358,-0.489916 c 0,-11.54025 13.848163,-22.427278 13.848163,-33.967529 L 92.475706,2.1495412 z"
         style="fill:none;stroke:#000000;stroke-width:0.70066738;stroke-opacity:1" />
    </clipPath>
  </defs>
  <sodipodi:namedview
     pagecolor="#ffffff"
     bordercolor="#666666"
     borderopacity="1"
     objecttolerance="10"
     gridtolerance="10"
     guidetolerance="10"
     inkscape:pageopacity="0"
     inkscape:pageshadow="2"
     inkscape:window-width="1920"
     inkscape:window-height="1061"
     id="namedview2987"
     showgrid="false"
     inkscape:zoom="4.7331834"
     inkscape:cx="57.47799"
     inkscape:cy="0.20614644"
     inkscape:window-x="-4"
     inkscape:window-y="-4"
     inkscape:window-maximized="1"
     inkscape:current-layer="svg2985"
     inkscape:showpageshadow="false"
     showborder="true"
     fit-margin-top="2"
     fit-margin-left="2"
     fit-margin-right="2"
     fit-margin-bottom="2"
     showguides="false"
     inkscape:guide-bbox="true">
    <sodipodi:guide
       orientation="0,1"
       position="43.833667,7.0943844"
       id="guide2987" />
  </sodipodi:namedview>
  <g
     transform="matrix(0.2476154,0,0,0.2476154,3.0703645,-26.736306)"
     style="font-size:144px;font-style:normal;font-variant:normal;font-weight:normal;font-stretch:normal;line-height:125%;letter-spacing:0px;word-spacing:0px;fill:#000000;fill-opacity:1;stroke:none;font-family:Vrinda;-inkscape-font-specification:Vrinda"
     id="flowRoot2982">
    <path
       d="m 490.875,266.24219 -12.51563,0 c -0.18757,-2.90619 -0.94929,-5.5429 -2.28515,-7.91016 -1.33601,-2.36711 -3.10554,-4.38273 -5.3086,-6.04687 -2.20318,-1.66399 -4.79303,-2.94133 -7.76953,-3.83204 -2.97661,-0.89054 -6.15239,-1.33585 -9.52734,-1.33593 -4.64067,8e-5 -8.83598,0.82039 -12.58594,2.46093 -3.75003,1.64071 -6.94925,4.03133 -9.59765,7.17188 -2.64847,3.1407 -4.68753,7.04304 -6.11719,11.70703 -1.42971,4.66412 -2.14455,9.99615 -2.14453,15.99609 -2e-5,6.00005 0.71482,11.30863 2.14453,15.92579 1.42966,4.61721 3.44529,8.51955 6.04687,11.70703 2.60154,3.18751 5.7656,5.61329 9.49219,7.27734 3.72652,1.66407 7.88668,2.4961 12.48047,2.49609 7.26557,10e-6 13.13666,-1.7578 17.61328,-5.27343 4.47649,-3.51561 6.99602,-8.60154 7.55859,-15.25782 l 12.51563,0 c -0.42196,4.9219 -1.64071,9.29299 -3.65625,13.11329 -2.01571,3.82032 -4.66414,7.05469 -7.94531,9.70312 -3.28132,2.64844 -7.12507,4.67578 -11.53125,6.08203 -4.40631,1.40625 -9.18756,2.10938 -14.34375,2.10938 -6.60942,0 -12.56254,-1.125 -17.85938,-3.375 -5.2969,-2.25 -9.80861,-5.44921 -13.53515,-9.59766 -3.72658,-4.14842 -6.59767,-9.18748 -8.61329,-15.11719 -2.01563,-5.92965 -3.02344,-12.5273 -3.02343,-19.79297 -10e-6,-7.26557 1.01952,-13.86322 3.05859,-19.79296 2.03905,-5.92962 4.92186,-10.96868 8.64844,-15.11719 3.72654,-4.14835 8.23825,-7.35929 13.53515,-9.63281 5.29684,-2.27335 11.22652,-3.41007 17.78907,-3.41016 4.92182,9e-5 9.56244,0.70322 13.92187,2.10937 4.35931,1.40635 8.21477,3.42197 11.56641,6.04688 3.35148,2.62508 6.08195,5.76571 8.1914,9.42187 2.1093,3.65633 3.37492,7.71101 3.79688,12.16407 z"
       id="path4509"
       inkscape:connector-curvature="0" />
    <path
       d="m 548.03906,236.64062 c 6.37495,10e-5 12.26947,1.14854 17.6836,3.44532 5.41399,2.29696 10.07804,5.53133 13.99218,9.70312 3.91398,4.17195 6.97257,9.19929 9.17578,15.08203 2.20304,5.88288 3.3046,12.41021 3.30469,19.58203 -9e-5,7.07817 -1.07822,13.54691 -3.23437,19.40625 -2.15634,5.8594 -5.20321,10.91018 -9.14063,15.15235 -3.93758,4.24219 -8.60163,7.52344 -13.99219,9.84375 -5.39068,2.32031 -11.32036,3.48047 -17.78906,3.48047 -6.51567,0 -12.4805,-1.14844 -17.89453,-3.44532 -5.41409,-2.29687 -10.07815,-5.54296 -13.99219,-9.73828 -3.91407,-4.19529 -6.96095,-9.24607 -9.14062,-15.15234 -2.1797,-5.90622 -3.26954,-12.42184 -3.26953,-19.54688 -10e-6,-7.21869 1.10155,-13.78118 3.30468,-19.6875 2.20312,-5.90617 5.28515,-10.94523 9.2461,-15.11718 3.96091,-4.17179 8.62497,-7.38273 13.99219,-9.63282 5.36715,-2.2499 11.28511,-3.3749 17.7539,-3.375 z m -0.14062,85.21875 c 4.59369,10e-6 8.83588,-0.85545 12.72656,-2.5664 3.89056,-1.71093 7.24212,-4.17186 10.05469,-7.38281 2.81242,-3.21092 5.00383,-7.12498 6.57422,-11.74219 1.57023,-4.61715 2.35538,-9.85543 2.35546,-15.71485 -8e-5,-5.95307 -0.79695,-11.2265 -2.39062,-15.82031 -1.59383,-4.59368 -3.78523,-8.4843 -6.57422,-11.67187 -2.78913,-3.18743 -6.10553,-5.60149 -9.94922,-7.24219 -3.84381,-1.64054 -8.01568,-2.46085 -12.51562,-2.46094 -4.54692,9e-5 -8.78911,0.84384 -12.72657,2.53125 -3.93753,1.68758 -7.30081,4.12508 -10.08984,7.3125 -2.78909,3.18757 -4.98049,7.07819 -6.57422,11.67188 -1.59377,4.5938 -2.39064,9.82036 -2.39062,15.67968 -2e-5,5.85942 0.77342,11.0977 2.32031,15.71485 1.54685,4.61721 3.72654,8.53127 6.53906,11.74219 2.81247,3.21095 6.14059,5.67188 9.98438,7.38281 3.84371,1.71095 8.06245,2.56641 12.65625,2.5664 z"
       id="path4511"
       inkscape:connector-curvature="0" />
    <path
       d="m 685.14844,283.96094 c -9e-5,31.17189 -15.72664,46.75781 -47.17969,46.75781 l -29.32031,0 0,-92.46094 29.32031,0 c 31.45305,9e-5 47.1796,15.23445 47.17969,45.70313 z m -12.65625,0 c -8e-5,-5.43745 -0.53914,-10.28901 -1.61719,-14.55469 -1.0782,-4.26556 -2.91804,-7.89837 -5.51953,-10.89844 -2.60163,-2.99992 -6.15241,-5.29679 -10.65235,-6.89062 -4.50005,-1.59367 -10.12504,-2.39055 -16.875,-2.39063 l -16.94531,0 0,70.52344 16.94531,0 c 6.74996,10e-6 12.35152,-0.8203 16.80469,-2.46094 4.45307,-1.64061 8.00384,-3.98436 10.65235,-7.03125 2.64836,-3.04685 4.51164,-6.78513 5.58984,-11.21484 1.07805,-4.42965 1.61711,-9.45699 1.61719,-15.08203 z"
       id="path4513"
       inkscape:connector-curvature="0" />
    <path
       d="m 771.07031,330.71875 -69.04687,0 0,-92.46094 69.04491,0 0.005,10.96875 -56.8154,0 0,28.125 37.1875,0 14,11.03906 -51.1875,0 0,31.35938 56.8125,0 z"
       id="path4515"
       inkscape:connector-curvature="0"
       sodipodi:nodetypes="ccccccccccccc" />
  </g>
  <g
     id="g3016"
     transform="matrix(1.0131229,0,0,1.0131229,1.9999995,2.6140126)">
    <path
       transform="matrix(0.99981532,0,0,0.99981532,4.0666486e-6,-0.00776424)"
       clip-path="url(#clipPath3788)"
       style="fill:#999999"
       d="M 20.110922,58.018477 -4.0673998e-6,0.01847551 5.5,0.018477 l 20.110685,58 z"
       id="path3768"
       inkscape:connector-curvature="0"
       sodipodi:nodetypes="ccccc" />
    <g
       transform="matrix(0.99981532,0,0,0.99981532,-0.57726526,0.01070876)"
       id="g3766">
      <path
         style="fill:#000000"
         d="M 31.973713,52.447616 15.74822,5.4540119 l 8.112747,0 16.225493,46.9936041 z"
         id="path3786"
         inkscape:connector-curvature="0"
         sodipodi:nodetypes="ccccc"
         clip-path="url(#clipPath3797)"
         transform="translate(-1.4318242,0.48991699)" />
      <path
         sodipodi:nodetypes="ccccccccccc"
         inkscape:connector-curvature="0"
         id="path3793"
         d="M 49.721412,17.927296 41.04694,48.227731 36.693829,36.214175 45.308627,5.4540119 l 8.82557,0 11.012748,32.9469861 11.671774,-32.9469861 8.647401,0 -16.25534,46.9936041 -8.12767,0 z"
         style="fill:#000000"
         clip-path="url(#clipPath3806)"
         transform="translate(1.0580977,0.48991699)" />
    </g>
    <path
       transform="matrix(0.99981532,0,0,0.99981532,-0.98134687,0.01070976)"
       clip-path="url(#clipPath3778)"
       sodipodi:nodetypes="ccccc"
       inkscape:connector-curvature="0"
       id="path2995"
       d="m 95.5,0 5.5,0 -19.822681,58 -5.5,0 z"
       style="fill:#b3b3b3" />
  </g>
</svg>
